<svg xmlns="http://www.w3.org/2000/svg" viewBox="0 0 333.3 333.3"><defs><style>.a{fill:#007934;}.b{fill:#fff;}.c{fill:#61a60e;}</style></defs><rect class="a" width="333.3" height="333.3" rx="166.65"/><rect class="b" x="11.65" y="11.65" width="310" height="310" rx="155"/><path class="a" d="M96.56,228a37.78,37.78,0,0,0-.83,15.09c.6,6.62,4.33,13.63,5.94,15.18,1.42,1.35.62,2.19-.65,2.2H74c-1.26,0-1.77-.48-1.12-2.08,2.43-6,55.31-146.41,55.31-146.41S99.76,215.55,96.56,228Z"/><path class="a" d="M283.12,166.24c2.75-55.4-38.45-103.58-92.64-109.11a119.12,119.12,0,0,0-24.66-2.47,126.62,126.62,0,0,0-46.07,9.22A162.22,162.22,0,0,0,78.57,88.16a167.58,167.58,0,0,0-18,16.7,90.21,90.21,0,0,0-8.09,9.85A54.16,54.16,0,0,0,46,126.25a25.51,25.51,0,0,0-1.19,14,36.23,36.23,0,0,0,1.95,6.56,60.69,60.69,0,0,0,2.85,5.91,93.34,93.34,0,0,0,7,10.56c2.5,3.32,2.94,2.89.63-.62A95.4,95.4,0,0,1,51,151.75a58.92,58.92,0,0,1-2.36-5.87,33.7,33.7,0,0,1-1.42-6.09,21.29,21.29,0,0,1,1.75-11.86,47.27,47.27,0,0,1,6.62-10,79.92,79.92,0,0,1,8.18-8.55A155.87,155.87,0,0,1,82.12,94.92c12.79-8.61,26.26-16.33,40.52-19.44,35.15-7.67,46-4.73,48.59-4.55,48.32,3.36,85.61,45,83.19,92.9a87.3,87.3,0,0,1-1.91,14.26l28.34,5.22A102.7,102.7,0,0,0,283.12,166.24Z"/><path class="c" d="M107.86,199.78c7.65-9.66,27.44-29.59,56.35-38,8.33-10.32,14.71-20.45,17-25-1.34,5-3.84,12.77-11.46,23.54,2.61-.58,5.28-1.07,8-1.47a70.36,70.36,0,0,1,18.28-.14c8-30,0-54.83,0-54.83S190,111.54,174.43,124,146,139.43,127.75,161.77c-7.14,8.75-15.93,25.59-18.86,34.18A29.2,29.2,0,0,0,107.86,199.78Z"/><path class="c" d="M252.42,182C227.88,175.84,207,160,178.33,164c-43.48,6.06-68.45,40.39-70,43.09a105.33,105.33,0,0,1,14.4-4.72,175.8,175.8,0,0,1,18-3.48,173.37,173.37,0,0,1,18.18-1.63,108.21,108.21,0,0,1,18.26.62c6,.87,12,2.05,17.94,3.36S207,204,212.9,205.09a73.53,73.53,0,0,0,17.93,1.4,86.59,86.59,0,0,0,17.87-3,88.63,88.63,0,0,1-17.82,3.75,74.47,74.47,0,0,1-18.14-.68c-6-.87-12-2.13-17.91-3.18s-11.91-2-17.87-2.61a105.58,105.58,0,0,0-17.87.07,179.62,179.62,0,0,0-17.85,2.3,162.36,162.36,0,0,0-17.56,4.08,93.73,93.73,0,0,0-16,6.17v.09c8.3,19.14,33.32,55.66,89.59,45.12S289,187.83,289,187.83,277,188.23,252.42,182Z"/></svg>