<?xml version="1.0" encoding="utf-8"?>
<!-- Generator: Adobe Illustrator 25.4.1, SVG Export Plug-In . SVG Version: 6.00 Build 0)  -->
<svg version="1.1" id="Слой_1" xmlns="http://www.w3.org/2000/svg" xmlns:xlink="http://www.w3.org/1999/xlink" x="0px" y="0px"
	 viewBox="0 0 120 120" style="enable-background:new 0 0 120 120;" xml:space="preserve">
<style type="text/css">
	.st0{fill:#007934;}
	.st1{fill:#FFFFFF;}
	.st2{fill:#61A60E;}
</style>
<path class="st0" d="M60,0L60,0c33.1,0,60,26.9,60,60l0,0c0,33.1-26.9,60-60,60l0,0C26.9,120,0,93.1,0,60l0,0C0,26.9,26.9,0,60,0z"
	/>
<path class="st1" d="M60,4.2L60,4.2c30.8,0,55.8,25,55.8,55.8l0,0c0,30.8-25,55.8-55.8,55.8l0,0c-30.8,0-55.8-25-55.8-55.8l0,0
	C4.2,29.2,29.2,4.2,60,4.2z"/>
<path class="st0" d="M34.8,82.1c-0.5,1.8-0.6,3.6-0.3,5.4c0.2,2.4,1.6,4.9,2.1,5.5c0.5,0.5,0.2,0.8-0.2,0.8h-9.7
	c-0.5,0-0.6-0.2-0.4-0.7c0.9-2.2,19.9-52.7,19.9-52.7S35.9,77.6,34.8,82.1z"/>
<path class="st0" d="M101.9,59.9c1-19.9-13.8-37.3-33.4-39.3c-2.9-0.6-5.9-0.9-8.9-0.9C54,19.7,48.4,20.9,43.1,23
	c-5.3,2.2-10.3,5.1-14.8,8.7c-2.3,1.8-4.5,3.9-6.5,6c-1.1,1.1-2,2.3-2.9,3.5c-0.9,1.3-1.7,2.7-2.3,4.2c-0.6,1.6-0.8,3.4-0.4,5
	c0.2,0.8,0.4,1.6,0.7,2.4c0.3,0.7,0.6,1.4,1,2.1c0.8,1.3,1.6,2.6,2.5,3.8c0.9,1.2,1.1,1,0.2-0.2c-0.8-1.3-1.6-2.6-2.2-3.9
	c-0.3-0.7-0.6-1.4-0.8-2.1c-0.2-0.7-0.4-1.4-0.5-2.2c-0.2-1.5,0-2.9,0.6-4.3c0.6-1.3,1.4-2.5,2.4-3.6c0.9-1.1,1.9-2.1,2.9-3.1
	c2.1-1.9,4.3-3.6,6.6-5.2c4.6-3.1,9.5-5.9,14.6-7c12.7-2.8,16.6-1.7,17.5-1.6C79,26.7,92.5,41.7,91.6,59c-0.1,1.7-0.3,3.4-0.7,5.1
	l10.2,1.9C101.6,64,101.8,61.9,101.9,59.9z"/>
<path class="st2" d="M38.8,71.9c2.8-3.5,9.9-10.7,20.3-13.7c3-3.7,5.3-7.4,6.1-9c-0.5,1.8-1.4,4.6-4.1,8.5c0.9-0.2,1.9-0.4,2.9-0.5
	c2.2-0.3,4.4-0.3,6.6-0.1c2.9-10.8,0-19.7,0-19.7s-2.2,2.8-7.8,7.2S52.6,50.2,46,58.2c-2.6,3.2-5.7,9.2-6.8,12.3
	C39,71,38.9,71.5,38.8,71.9z"/>
<path class="st2" d="M90.9,65.5C82,63.3,74.5,57.6,64.2,59C48.6,61.2,39.6,73.6,39,74.6c1.7-0.7,3.4-1.3,5.2-1.7
	c2.1-0.5,4.3-0.9,6.5-1.3c2.2-0.3,4.4-0.5,6.5-0.6c2.2-0.1,4.4,0,6.6,0.2c2.2,0.3,4.3,0.7,6.5,1.2c2.1,0.5,4.3,1,6.4,1.4
	c2.1,0.4,4.3,0.6,6.5,0.5c2.2-0.1,4.3-0.5,6.4-1.1c-2.1,0.7-4.2,1.1-6.4,1.4c-2.2,0.2-4.4,0.1-6.5-0.2c-2.2-0.3-4.3-0.8-6.4-1.1
	c-2.1-0.4-4.3-0.7-6.4-0.9c-2.1-0.2-4.3-0.2-6.4,0c-2.2,0.2-4.3,0.4-6.4,0.8c-2.1,0.4-4.2,0.9-6.3,1.5c-2,0.6-3.9,1.3-5.8,2.2v0
	c3,6.9,12,20,32.3,16.2s33-25.5,33-25.5S99.7,67.8,90.9,65.5z"/>
</svg>
