<svg xmlns="http://www.w3.org/2000/svg" viewBox="0 0 487.26 116.65"><defs><style>.a{fill:#007934;}</style></defs><path class="a" d="M182.77,101.08h-6v15.14h-3.39V98.12h9.39Z"/><path class="a" d="M200.75,103.62a5.43,5.43,0,0,1-1.62,4.26,6.73,6.73,0,0,1-4.68,1.47h-2v6.87h-3.39V98.12H194Q200.76,98.12,200.75,103.62Zm-3.38.09q0-2.76-3.83-2.76h-1.08v5.57h1.2C196.13,106.52,197.37,105.59,197.37,103.71Z"/><path class="a" d="M221.79,98.12l-8.7,18.1h-3.71l2.75-5.52-6.71-12.58h4l4.53,9,4.08-9Z"/><path class="a" d="M241.9,116.22h-3.39V101.08h-7.67v15.14h-3.39V98.12H241.9Z"/><path class="a" d="M263.91,116.22h-3.39V101.08h-7.68v15.14h-3.38V98.12h14.45Z"/><path class="a" d="M287.79,116.22h-3.55l-1.57-4.08H274.9l-1.56,4.08h-3.55L277,98.12h3.6Zm-6.2-6.89-2.8-7.29L276,109.33Z"/><path class="a" d="M320.47,116.22H316l-7-8.84v8.84h-3.39V98.12h3.39v8l6.78-8h4.28l-7.7,8.55Z"/><path class="a" d="M343.86,107.17a9,9,0,0,1-2.82,6.72,10,10,0,0,1-13.79,0,9.39,9.39,0,0,1,0-13.44,10,10,0,0,1,13.79,0A9,9,0,0,1,343.86,107.17Zm-3.46,0a6.15,6.15,0,1,0-1.8,4.43A6,6,0,0,0,340.4,107.17Z"/><path class="a" d="M370.16,116.22h-3.35l-1.76-12.12-4,12.12h-2.89l-4-12.12-1.74,12.12H349l2.89-18.1h3.64l4.06,13.63,4.05-13.63h3.66Z"/><path class="a" d="M390.63,116.22h-3.39V101.08h-7.67v15.14h-3.39V98.12h14.45Z"/><path class="a" d="M414.51,116.22H411l-1.57-4.08h-7.77l-1.56,4.08h-3.55l7.2-18.1h3.6Zm-6.2-6.89-2.8-7.29-2.81,7.29Z"/><path class="a" d="M434.93,116.22h-3.39v-8.09h-7.77v8.09h-3.39V98.12h3.39v7.13h7.77V98.12h3.39Z"/><path class="a" d="M457.85,116.22h-3.39v-13l-8.59,13h-3.38V98.12h3.38v13l8.59-13h3.39Z"/><path class="a" d="M480.75,116.22h-3.39v-13l-8.59,13h-3.39V98.12h3.39v13l8.59-13h3.39Zm-3.27-23.41a4.09,4.09,0,0,1-1.29,3,4.31,4.31,0,0,1-3.13,1.26A4.22,4.22,0,0,1,470,95.86a4.11,4.11,0,0,1-1.27-3h2.49a2.13,2.13,0,0,0,.52,1.47,1.78,1.78,0,0,0,1.37.57,1.82,1.82,0,0,0,1.39-.57,2.09,2.09,0,0,0,.53-1.47Z"/><path class="a" d="M264.36.71h15.41a1.42,1.42,0,0,1,1.42,1.42v44.5a1.42,1.42,0,0,0,2.38,1q9.42-8.84,21.7-22Q318.2,11.74,327,1.21a1.4,1.4,0,0,1,1.08-.5h7.17a1.41,1.41,0,0,1,1.41,1.42V71.45a1.42,1.42,0,0,1-1.41,1.42H319.82a1.42,1.42,0,0,1-1.42-1.42V26.57a1.41,1.41,0,0,0-2.41-1q-9.67,9.61-21.49,22.3-13,14-22,24.52a1.42,1.42,0,0,1-1.07.49h-7.05a1.43,1.43,0,0,1-1.42-1.42V2.13A1.42,1.42,0,0,1,264.36.71Z"/><path class="a" d="M350.11,2.36A1.43,1.43,0,0,1,351.53.94h30q10.45,0,16.66,3.36a13.4,13.4,0,0,1,7.54,12.58q0,6.91-6.08,11.53a28.65,28.65,0,0,1-13.87,5.14v.94q8.76.84,14.23,4.09,7.66,4.52,7.67,13.21,0,10.17-9.25,15.73-8,4.82-20.19,4.82H351.53a1.42,1.42,0,0,1-1.42-1.42Zm18.12,28a1.43,1.43,0,0,0,1.42,1.42h2.47a32.09,32.09,0,0,0,5.9-.42A11.17,11.17,0,0,0,382.58,29a12.26,12.26,0,0,0,3.71-4.72,14.6,14.6,0,0,0,1.28-6.08c0-3.77-1.14-6.64-3.41-8.59s-5.47-2.94-9.6-2.94l-5,.25a1.41,1.41,0,0,0-1.35,1.41Zm0,34.49a1.42,1.42,0,0,0,1.42,1.42h4.79a15.06,15.06,0,0,0,9.91-3.72,12.39,12.39,0,0,0,4.44-10c0-5.46-1.79-9.33-5.36-11.64-2.94-1.89-7.53-2.89-13.76-3a1.42,1.42,0,0,0-1.44,1.42Z"/><path class="a" d="M431.15,51a1.43,1.43,0,0,0-1.31.89q-3.61,8.86-5.3,13.14c-1,2.54-1.83,4.81-2.5,6.82a1.43,1.43,0,0,1-1.48,1l-7.95-.12a1.42,1.42,0,0,1-1.41-2L444.53.81A1.41,1.41,0,0,1,445.81,0h7.44a1.41,1.41,0,0,1,1.29.82l32.58,70a1.41,1.41,0,0,1-1.34,2c-1,0-16.84,0-17.56,0a1.43,1.43,0,0,1-1.41-.94Q464.29,65,463,61.7q-2.22-5.66-4.13-9.92a1.41,1.41,0,0,0-1.29-.83Zm23.71-8.38L446.18,23a1.42,1.42,0,0,0-2.58,0l-9.17,19.59a1.42,1.42,0,0,0,1.28,2h17.85A1.42,1.42,0,0,0,454.86,42.57Z"/><path class="a" d="M252.1,65.1l-4.62,0a2.62,2.62,0,0,1-1.23-.91C241.17,53.41,222.08,11.07,218,1.4A1.08,1.08,0,0,0,217,.74c-.48,0-1.08.1-1.78.19a21.49,21.49,0,0,1-2.67.22,21.26,21.26,0,0,1-2.56-.22c-.7-.09-1.29-.15-1.77-.19a1.1,1.1,0,0,0-1.08.68q-4.82,11.64-9.19,21c-2.67,5.87-16.4,34.31-19.87,41.17a3.45,3.45,0,0,1-.95,1l-6.51,0a1.42,1.42,0,0,0-1.41,1.64l1.66,10.52a1.4,1.4,0,0,0,1.91,1.1c3.76-1.49,14.51-4.78,37.05-5.19,23.28-.43,35,3.57,38.87,5.23a1.42,1.42,0,0,0,1.92-.92l2.89-10A1.43,1.43,0,0,0,252.1,65.1Zm-63.66-2.17C191,56.72,202.9,30.22,206,23.52a1.42,1.42,0,0,1,2.59,0c2.76,6.46,14.16,33,16.65,39.4A1.41,1.41,0,0,1,224,64.88l-2,0-32.95-.21A1.39,1.39,0,0,1,188.44,62.93Z"/><path class="a" d="M34.32,96.78a19.54,19.54,0,0,0-.2,10.18,15.64,15.64,0,0,0,3.56,6.6c.92.75.4,1.22-.43,1.22-4.28,0-14.3,0-17.71,0-.83,0-1.16-.27-.74-1.16,1.6-3.32,36.3-81.16,36.3-81.16S36.24,89.85,34.32,96.78Z"/><path class="a" d="M96,2.08A91.88,91.88,0,0,0,79.75.71,96.51,96.51,0,0,0,49.52,5.82a112.55,112.55,0,0,0-27,13.46,105.88,105.88,0,0,0-11.84,9.26A51.51,51.51,0,0,0,5.35,34a29.2,29.2,0,0,0-4.25,6.4,12.34,12.34,0,0,0-1,3.85,12.08,12.08,0,0,0,.26,3.94A17.54,17.54,0,0,0,1.6,51.81a30.93,30.93,0,0,0,1.87,3.28A52.43,52.43,0,0,0,8.06,61c1.64,1.84,1.91,1.59.42-.35a50,50,0,0,1-4.09-6.07,29.25,29.25,0,0,1-1.55-3.25,15.9,15.9,0,0,1-.93-3.4,10.21,10.21,0,0,1,1.14-6.56,26.79,26.79,0,0,1,4.33-5.55A48,48,0,0,1,12.75,31a102,102,0,0,1,12.06-8c8.4-4.77,17.24-9.06,26.6-10.78C74.47,8,81.59,9.63,83.29,9.73c31.72,1.86,56.17,24.92,54.61,51.5S115,107.76,83.26,105.48c-12.8-.92-23.73-13-27.59-17.15-3.19-3.43-5.43-5.17-7.79-6.13a10.8,10.8,0,0,0-6.65-.59c-1.45.4-2.14.27-1.23-2.68.59-1.91-6.65,6.16-6.65,6.16s1.61,9.55,2.36,7.29c2.16-6.46,7.4-7.34,10.58-5.27s7.33,7.81,9.51,10.43c5.81,7,10.52,15.07,29.18,17.74,39,5.57,69.91-21.37,71.75-52.71C158.54,31.85,131.5,5.16,96,2.08Z"/></svg>