<?xml version="1.0" encoding="utf-8"?>
<!-- Generator: Adobe Illustrator 25.4.1, SVG Export Plug-In . SVG Version: 6.00 Build 0)  -->
<svg version="1.1" id="Слой_1" xmlns="http://www.w3.org/2000/svg" xmlns:xlink="http://www.w3.org/1999/xlink" x="0px" y="0px"
	 viewBox="0 0 140 32.2" style="max-width:140px" xml:space="preserve" fill="green">
<g>
	<path d="M59.1,27.1h-1.4v5h0.9v-1.9h0.6c0.5,0,0.9-0.1,1.3-0.4c0.3-0.3,0.5-0.7,0.4-1.2C60.9,27.6,60.3,27.1,59.1,27.1z M59,29.4
		h-0.3v-1.5H59c0.7,0,1,0.3,1,0.8C60,29.2,59.6,29.4,59,29.4z"/>
	<polygon points="64.6,29.6 63.3,27.1 62.2,27.1 64.1,30.6 63.3,32.1 64.3,32.1 66.7,27.1 65.7,27.1 	"/>
	<path d="M117,27.1l-2,5h1l0.4-1.1h2.2l0.4,1.1h1h0l-2-5H117z M116.7,30.2l0.8-2l0.8,2H116.7z"/>
	<path d="M136.1,26.8c0.3,0,0.6-0.1,0.9-0.4s0.4-0.5,0.4-0.8l-0.7,0c0,0.2,0,0.3-0.1,0.4c-0.1,0.1-0.2,0.2-0.4,0.2s-0.3-0.1-0.4-0.2
		c-0.1-0.1-0.1-0.3-0.1-0.4h-0.7c0,0.3,0.1,0.6,0.4,0.8C135.5,26.7,135.8,26.8,136.1,26.8z"/>
	<polygon points="53.4,32.1 54.3,32.1 54.3,27.9 56,27.9 56,27.1 53.4,27.1 	"/>
	<path d="M74.7,21.3C74.7,21.2,74.7,21.2,74.7,21.3l0.8-2.8c0.1-0.2-0.1-0.4-0.2-0.5c-0.1,0-0.1,0-0.2,0h-1.3
		c-0.1-0.1-0.2-0.1-0.3-0.2c-1.4-3-6.7-14.7-7.8-17.3c-0.1-0.1-0.2-0.2-0.3-0.2c-0.1,0-0.3,0-0.5,0.1c-0.2,0-0.5,0.1-0.7,0.1
		c-0.2,0-0.5,0-0.7-0.1c-0.2,0-0.4,0-0.5-0.1c-0.1,0-0.2,0.1-0.3,0.2c-0.9,2.2-1.7,4.1-2.5,5.8c-0.7,1.6-4.5,9.5-5.5,11.4
		c-0.1,0.1-0.2,0.2-0.2,0.3h-1.8c-0.2,0-0.4,0.2-0.4,0.4v0.1l0.5,2.9c0,0.2,0.2,0.4,0.4,0.3c0,0,0.1,0,0.1,0c1-0.4,4-1.3,10.2-1.4
		c6.4-0.1,9.7,1,10.7,1.4C74.4,21.6,74.6,21.5,74.7,21.3z M67.5,17.9c-0.1,0-0.1,0-0.1,0h-0.6l-9.1-0.1c-0.2-0.1-0.2-0.3-0.2-0.5
		c0.7-1.7,4-9,4.9-10.9c0.1-0.2,0.3-0.3,0.5-0.2c0.1,0,0.2,0.1,0.2,0.2c0.8,1.8,3.9,9.1,4.6,10.9C67.8,17.6,67.7,17.8,67.5,17.9z"/>
	<path d="M140,19.5l-9-19.3c-0.1-0.1-0.2-0.2-0.4-0.2h-2c-0.2,0-0.3,0.1-0.4,0.2L119,19.5c0,0.1,0,0.1,0,0.2c0,0.2,0.2,0.4,0.4,0.4
		l2.2,0c0.2,0,0.4-0.1,0.4-0.3c0.2-0.6,0.4-1.2,0.7-1.9c0.3-0.8,0.8-2,1.5-3.6c0.1-0.1,0.2-0.2,0.4-0.2h7.3c0.2,0,0.3,0.1,0.4,0.2
		c0.3,0.8,0.7,1.7,1.1,2.7c0.2,0.6,0.6,1.5,1,2.8c0.1,0.1,0.2,0.2,0.4,0.2h4.9c0.1,0,0.1,0,0.2,0C140,20,140.1,19.7,140,19.5z
		 M130.7,12.3h-4.9c-0.1,0-0.1,0-0.2,0c-0.2-0.1-0.3-0.3-0.2-0.5l2.5-5.4c0-0.1,0.1-0.2,0.2-0.2c0.2-0.1,0.4,0,0.5,0.2l2.4,5.4
		c0,0.1,0,0.1,0,0.2C131.1,12.1,131,12.3,130.7,12.3z"/>
	<path d="M102.6,20h7.4c2.2,0,4.1-0.4,5.6-1.3c1.7-1,2.5-2.5,2.5-4.3c0-1.6-0.7-2.8-2.1-3.6c-1-0.6-2.3-1-3.9-1.1V9.3
		c1.4-0.1,2.7-0.6,3.8-1.4c1.1-0.8,1.7-1.9,1.7-3.2c0.1-1.5-0.7-2.8-2.1-3.5c-1.2-0.6-2.7-0.9-4.6-0.9h-8.3c-0.2,0-0.4,0.2-0.4,0.4
		v18.9C102.2,19.8,102.3,20,102.6,20z M107.2,2.3c0-0.2,0.2-0.4,0.4-0.4l1.4-0.1c1.1,0,2,0.2,2.7,0.8c0.6,0.6,0.9,1.3,0.9,2.4
		c0,0.6-0.1,1.2-0.4,1.7c-0.2,0.5-0.6,1-1,1.3c-0.4,0.3-0.8,0.6-1.3,0.7c-0.5,0.1-1.1,0.1-1.6,0.1h-0.7c-0.2,0-0.4-0.2-0.4-0.4V2.3z
		 M107.5,10.5c1.7,0,3,0.3,3.8,0.8c1,0.6,1.5,1.7,1.5,3.2c0.1,1-0.4,2.1-1.2,2.8c-0.7,0.7-1.7,1-2.7,1h-1.3c-0.2,0-0.4-0.2-0.4-0.4
		l0-7C107.1,10.6,107.3,10.5,107.5,10.5z"/>
	<polygon points="68.3,27.1 68.3,32.1 69.2,32.1 69.2,27.9 71.4,27.9 71.4,32.1 72.3,32.1 72.3,27.1 	"/>
	<polygon points="128.6,30.7 128.6,27.1 127.7,27.1 127.7,32.1 128.6,32.1 131,28.5 131,32.1 131.9,32.1 131.9,27.1 131,27.1 	"/>
	<path d="M95.9,27.7L95.9,27.7c-1,1.1-1,2.7,0,3.7c1.1,1,2.7,1,3.8,0c0.5-0.5,0.8-1.2,0.8-1.8c0-0.7-0.3-1.4-0.8-1.9
		C98.6,26.7,97,26.7,95.9,27.7z M99,30.8c-0.3,0.3-0.7,0.5-1.2,0.5c-0.9,0-1.7-0.7-1.7-1.7c0-0.9,0.7-1.7,1.7-1.7s1.7,0.7,1.7,1.7
		C99.5,30,99.3,30.5,99,30.8z"/>
	<polygon points="105.9,27.1 104.8,30.8 103.7,27.1 102.7,27.1 101.9,32.1 102.8,32.1 103.3,28.7 104.4,32.1 105.2,32.1 106.3,28.7 
		106.8,32.1 107.7,32.1 106.9,27.1 	"/>
	<polygon points="74.4,32.1 75.3,32.1 75.3,27.9 77.4,27.9 77.4,32.1 78.4,32.1 78.4,27.1 74.4,27.1 	"/>
	<polygon points="109.3,32.1 110.3,32.1 110.3,27.9 112.4,27.9 112.4,32.1 113.4,32.1 113.4,27.1 109.3,27.1 	"/>
	<polygon points="124.6,29 122.5,29 122.5,27.1 121.6,27.1 121.6,32.1 122.5,32.1 122.5,29.8 124.6,29.8 124.6,32.1 125.6,32.1 
		125.6,27.1 124.6,27.1 	"/>
	<path d="M82,27.1l-2,5h1l0.4-1.1h2.2l0.4,1.1h1l-2-5H82z M81.7,30.2l0.8-2l0.8,2H81.7z"/>
	<polygon points="134.9,30.7 134.9,27.1 134,27.1 134,32.1 134.9,32.1 137.3,28.5 137.3,32.1 138.3,32.1 138.3,27.1 137.3,27.1 	"/>
	<polygon points="93.9,27.1 92.7,27.1 90.8,29.3 90.8,27.1 89.9,27.1 89.9,32.1 90.8,32.1 90.8,29.6 92.8,32.1 94,32.1 91.8,29.5 	
		"/>
	<path d="M93.1,7c0.2,0,0.4,0.2,0.4,0.4v12.4c0,0.2,0.2,0.4,0.4,0.4h4.3c0.2,0,0.4-0.2,0.4-0.4V0.6c0-0.2-0.2-0.4-0.4-0.4h-2
		c-0.1,0-0.2,0.1-0.3,0.1c-1.6,1.9-3.6,4.2-6,6.7c-2.3,2.4-4.3,4.4-6,6.1c-0.1,0.1-0.2,0.1-0.2,0.1c-0.2,0-0.4-0.2-0.4-0.4V0.6
		c0-0.2-0.2-0.4-0.4-0.4h-4.3c-0.2,0-0.4,0.2-0.4,0.4v19.2c0,0.2,0.2,0.4,0.4,0.4h1.9c0.1,0,0.2-0.1,0.3-0.1
		c1.7-1.9,3.7-4.2,6.1-6.8c2.2-2.3,4.2-4.4,5.9-6.2C92.9,7,92.9,7,93.1,7z"/>
	<path d="M26.5,0.6c-1.5-0.2-3-0.4-4.5-0.4c-2.8,0-5.7,0.5-8.4,1.4C11,2.5,8.5,3.8,6.2,5.3C5,6.1,4,7,2.9,7.9c-0.5,0.4-1,1-1.5,1.5
		s-0.9,1.1-1.2,1.8c-0.1,0.3-0.2,0.7-0.3,1c0,0.4,0,0.7,0.1,1.1c0.1,0.3,0.2,0.7,0.3,1c0.2,0.3,0.3,0.6,0.5,0.9
		c0.4,0.6,0.8,1.1,1.3,1.6c0.4,0.5,0.5,0.4,0.1-0.1c-0.4-0.5-0.8-1.1-1.1-1.7c-0.2-0.3-0.3-0.6-0.4-0.9c-0.1-0.3-0.2-0.6-0.2-0.9
		c-0.1-0.6,0-1.3,0.3-1.8c0.3-0.6,0.7-1.1,1.2-1.5c0.5-0.5,1-0.9,1.5-1.3c1-0.8,2.2-1.5,3.3-2.2c2.3-1.3,4.7-2.5,7.3-3
		c6.4-1.2,8.3-0.7,8.8-0.7c8.8,0.5,15.5,6.9,15.1,14.2c-0.4,7.3-6.3,12.8-15.1,12.2c-3.5-0.2-6.5-3.6-7.6-4.7
		c-0.9-0.9-1.5-1.4-2.2-1.7c-0.6-0.2-1.2-0.3-1.8-0.2c-0.4,0.1-0.6,0.1-0.3-0.7c0,0,0-0.1,0-0.1c1.7-5.3,4.2-12.8,4.2-12.8
		s-9.6,21.5-10,22.4c-0.1,0.2,0,0.3,0.2,0.3h4.9c0.2,0,0.4-0.1,0.1-0.3c-0.5-0.5-0.8-1.1-1-1.8c-0.2-0.9-0.2-1.9,0.1-2.8
		c0.1-0.2,0.2-0.6,0.3-1.1c0,0,0,0,0-0.1c0.6-1.8,2-2,2.9-1.5c0.9,0.6,2,2.2,2.6,2.9c1.6,1.9,2.9,4.2,8.1,4.9
		c10.8,1.5,19.3-5.9,19.8-14.6C43.7,8.8,36.3,1.4,26.5,0.6z"/>
</g>
</svg>
