<?xml version="1.0" encoding="utf-8"?>
<!-- Generator: Adobe Illustrator 25.4.1, SVG Export Plug-In . SVG Version: 6.00 Build 0)  -->
<svg version="1.1" id="Слой_1" xmlns="http://www.w3.org/2000/svg" xmlns:xlink="http://www.w3.org/1999/xlink" x="0px" y="0px"
	 viewBox="0 0 507.3 116.7" style="enable-background:new 0 0 507.3 116.7;" xml:space="preserve">
<style type="text/css">
	.st0{fill:#007934;}
</style>
<path class="st0" d="M202.8,101.1h-6v15.1h-3.4V98.1h9.4V101.1z"/>
<path class="st0" d="M220.8,103.6c0.1,1.6-0.5,3.1-1.6,4.3c-1.3,1.1-3,1.6-4.7,1.5h-2v6.9h-3.4V98.1h4.9
	C218.5,98.1,220.8,100,220.8,103.6z M217.4,103.7c0-1.8-1.3-2.8-3.8-2.8h-1.1v5.6h1.2C216.1,106.5,217.4,105.6,217.4,103.7z"/>
<path class="st0" d="M241.8,98.1l-8.7,18.1h-3.7l2.8-5.5l-6.7-12.6h4l4.5,9l4.1-9H241.8z"/>
<path class="st0" d="M261.9,116.2h-3.4v-15.1h-7.7v15.1h-3.4V98.1h14.4V116.2z"/>
<path class="st0" d="M283.9,116.2h-3.4v-15.1h-7.7v15.1h-3.4V98.1h14.5V116.2z"/>
<path class="st0" d="M307.8,116.2h-3.5l-1.6-4.1h-7.8l-1.6,4.1h-3.5l7.2-18.1h3.6L307.8,116.2z M301.6,109.3l-2.8-7.3l-2.8,7.3
	H301.6z"/>
<path class="st0" d="M340.5,116.2H336l-7-8.8v8.8h-3.4V98.1h3.4v8l6.8-8h4.3l-7.7,8.6L340.5,116.2z"/>
<path class="st0" d="M363.9,107.2c0,2.5-1,5-2.8,6.7c-3.9,3.7-9.9,3.7-13.8,0c-3.7-3.6-3.8-9.6-0.2-13.3c0.1-0.1,0.1-0.1,0.2-0.2
	c3.9-3.7,9.9-3.7,13.8,0C362.9,102.2,363.9,104.6,363.9,107.2z M360.4,107.2c0-3.4-2.8-6.1-6.2-6.1c-3.4,0-6.1,2.8-6.1,6.2
	c0,3.4,2.8,6.1,6.2,6.1c1.6,0,3.1-0.7,4.3-1.8C359.8,110.4,360.4,108.8,360.4,107.2z"/>
<path class="st0" d="M390.2,116.2h-3.4l-1.8-12.1l-4,12.1h-2.9l-4-12.1l-1.7,12.1H369l2.9-18.1h3.6l4.1,13.6l4-13.6h3.7L390.2,116.2
	z"/>
<path class="st0" d="M410.6,116.2h-3.4v-15.1h-7.7v15.1h-3.4V98.1h14.5L410.6,116.2z"/>
<path class="st0" d="M434.5,116.2H431l-1.6-4.1h-7.8l-1.6,4.1h-3.5l7.2-18.1h3.6L434.5,116.2z M428.3,109.3l-2.8-7.3l-2.8,7.3H428.3
	z"/>
<path class="st0" d="M454.9,116.2h-3.4v-8.1h-7.8v8.1h-3.4V98.1h3.4v7.1h7.8v-7.1h3.4V116.2z"/>
<path class="st0" d="M477.9,116.2h-3.4v-13l-8.6,13h-3.4V98.1h3.4v13l8.6-13h3.4V116.2z"/>
<path class="st0" d="M500.8,116.2h-3.4v-13l-8.6,13h-3.4V98.1h3.4v13l8.6-13h3.4V116.2z M497.5,92.8c0,1.1-0.5,2.2-1.3,3
	c-0.8,0.8-2,1.3-3.1,1.3c-1.1,0-2.2-0.4-3.1-1.2c-0.8-0.8-1.3-1.9-1.3-3h2.5c0,0.5,0.2,1.1,0.5,1.5c0.4,0.4,0.9,0.6,1.4,0.6
	c0.5,0,1-0.2,1.4-0.6c0.4-0.4,0.6-0.9,0.5-1.5L497.5,92.8z"/>
<path class="st0" d="M284.4,0.7h15.4c0.8,0,1.4,0.6,1.4,1.4c0,0,0,0,0,0v44.5c0,0.8,0.7,1.4,1.5,1.4c0.3,0,0.7-0.1,0.9-0.4
	c6.3-5.9,13.5-13.2,21.7-22c8.6-9.3,15.9-17.4,21.7-24.4c0.3-0.3,0.7-0.5,1.1-0.5h7.2c0.8,0,1.4,0.6,1.4,1.4c0,0,0,0,0,0v69.3
	c0,0.8-0.6,1.4-1.4,1.4h-15.4c-0.8,0-1.4-0.6-1.4-1.4c0,0,0,0,0,0V26.6c0-0.8-0.6-1.4-1.4-1.4c-0.4,0-0.7,0.1-1,0.4
	c-6.4,6.4-13.6,13.8-21.5,22.3c-8.7,9.3-16,17.5-22,24.5c-0.3,0.3-0.7,0.5-1.1,0.5h-7c-0.8,0-1.4-0.6-1.4-1.4V2.1
	C283,1.4,283.6,0.7,284.4,0.7z"/>
<path class="st0" d="M370.1,2.4c0-0.8,0.6-1.4,1.4-1.4h30c7,0,12.5,1.1,16.7,3.4c4.8,2.3,7.7,7.3,7.5,12.6c0,4.6-2,8.5-6.1,11.5
	c-4.1,2.9-8.9,4.7-13.9,5.1v0.9c5.8,0.6,10.6,1.9,14.2,4.1c5.1,3,7.7,7.4,7.7,13.2c0,6.8-3.1,12-9.2,15.7
	c-5.3,3.2-12.1,4.8-20.2,4.8h-26.7c-0.8,0-1.4-0.6-1.4-1.4c0,0,0,0,0,0V2.4z M388.2,30.4c0,0.8,0.6,1.4,1.4,1.4h2.5
	c2,0,4-0.1,5.9-0.4c1.7-0.4,3.2-1.2,4.6-2.4c1.6-1.2,2.9-2.9,3.7-4.7c0.9-1.9,1.3-4,1.3-6.1c0-3.8-1.1-6.6-3.4-8.6s-5.5-2.9-9.6-2.9
	l-5,0.2c-0.8,0-1.4,0.7-1.4,1.4L388.2,30.4z M388.2,64.8c0,0.8,0.6,1.4,1.4,1.4l0,0h4.8c3.6,0,7.2-1.3,9.9-3.7c3-2.5,4.6-6.2,4.4-10
	c0-5.5-1.8-9.3-5.4-11.6c-2.9-1.9-7.5-2.9-13.8-3c-0.8,0-1.4,0.6-1.4,1.4c0,0,0,0,0,0L388.2,64.8z"/>
<path class="st0" d="M451.1,51c-0.6,0-1.1,0.4-1.3,0.9c-2.4,5.9-4.2,10.3-5.3,13.1c-1,2.5-1.8,4.8-2.5,6.8c-0.2,0.6-0.8,1.1-1.5,1
	l-8-0.1c-0.8,0.1-1.5-0.5-1.5-1.3c0-0.2,0-0.5,0.1-0.7l33.3-69.9c0.2-0.5,0.7-0.8,1.3-0.8h7.4c0.6,0,1.1,0.3,1.3,0.8l32.6,70
	c0.3,0.7,0,1.5-0.7,1.9c-0.2,0.1-0.4,0.1-0.7,0.1c-1,0-16.8,0-17.6,0c-0.6,0-1.2-0.4-1.4-0.9c-1.7-4.6-2.9-8-3.8-10.2
	c-1.5-3.8-2.9-7.1-4.1-9.9c-0.2-0.5-0.7-0.8-1.3-0.8L451.1,51z M474.9,42.6L466.2,23c-0.3-0.7-1.2-1-1.9-0.7
	c-0.3,0.1-0.6,0.4-0.7,0.7l-9.2,19.6c-0.3,0.7,0,1.6,0.7,1.9c0.2,0.1,0.4,0.1,0.6,0.1h17.9c0.8,0,1.4-0.6,1.4-1.4
	C475,43,474.9,42.8,474.9,42.6L474.9,42.6z"/>
<path class="st0" d="M272.1,65.1h-4.6c-0.5-0.2-0.9-0.5-1.2-0.9c-5.1-10.8-24.2-53.1-28.2-62.8c-0.2-0.4-0.6-0.7-1-0.7
	c-0.5,0-1.1,0.1-1.8,0.2c-0.9,0.1-1.8,0.2-2.7,0.2c-0.9,0-1.7-0.1-2.6-0.2c-0.7-0.1-1.3-0.1-1.8-0.2c-0.5,0-0.9,0.2-1.1,0.7
	c-3.2,7.8-6.3,14.8-9.2,21c-2.7,5.9-16.4,34.3-19.9,41.2c-0.2,0.4-0.6,0.7-0.9,1h-6.5c-0.8,0-1.4,0.6-1.4,1.4c0,0.1,0,0.2,0,0.2
	l1.7,10.5c0.1,0.8,0.8,1.3,1.6,1.2c0.1,0,0.2,0,0.3-0.1c3.8-1.5,14.5-4.8,37.1-5.2c23.3-0.4,35,3.6,38.9,5.2c0.7,0.3,1.6,0,1.9-0.8
	c0-0.1,0-0.1,0.1-0.2l2.9-10c0.2-0.8-0.2-1.6-0.9-1.8C272.4,65.1,272.3,65.1,272.1,65.1z M208.4,62.9c2.6-6.2,14.5-32.7,17.6-39.4
	c0.3-0.7,1.2-1,1.9-0.7c0.3,0.1,0.6,0.4,0.7,0.7c2.8,6.5,14.2,33,16.6,39.4c0.3,0.7,0,1.5-0.7,1.8c-0.2,0.1-0.3,0.1-0.5,0.1h-2
	l-32.9-0.2C208.4,64.3,208.2,63.6,208.4,62.9z"/>
<path class="st0" d="M34.3,96.8c-1,3.3-1,6.8-0.2,10.2c0.6,2.5,1.9,4.7,3.6,6.6c0.9,0.8,0.4,1.2-0.4,1.2c-4.3,0-14.3,0-17.7,0
	c-0.8,0-1.2-0.3-0.7-1.2c1.6-3.3,36.3-81.2,36.3-81.2S36.2,89.8,34.3,96.8z"/>
<path class="st0" d="M96,2.1c-5.4-0.9-10.8-1.4-16.2-1.4C69.5,0.8,59.3,2.5,49.5,5.8c-9.6,3.3-18.6,7.8-27,13.5
	c-4.2,2.8-8.1,5.9-11.8,9.3C8.8,30.2,7,32.1,5.3,34c-1.7,1.9-3.1,4.1-4.2,6.4c-0.5,1.2-0.9,2.5-1,3.8c-0.1,1.3,0,2.6,0.3,3.9
	c0.3,1.2,0.7,2.5,1.2,3.6c0.6,1.1,1.2,2.2,1.9,3.3c1.4,2.1,2.9,4.1,4.6,5.9c1.6,1.8,1.9,1.6,0.4-0.3c-1.5-1.9-2.9-3.9-4.1-6.1
	c-0.6-1.1-1.1-2.1-1.5-3.2c-0.4-1.1-0.7-2.2-0.9-3.4c-0.4-2.3,0-4.6,1.1-6.6c1.2-2,2.6-3.9,4.3-5.5c1.7-1.7,3.5-3.4,5.4-4.8
	c3.8-2.9,7.9-5.6,12.1-8c8.4-4.8,17.2-9.1,26.6-10.8C74.5,8,81.6,9.6,83.3,9.7c31.7,1.9,56.2,24.9,54.6,51.5s-22.9,46.5-54.6,44.3
	c-12.8-0.9-23.7-13-27.6-17.2c-3.2-3.4-5.4-5.2-7.8-6.1c-2.1-0.9-4.4-1.1-6.7-0.6c-1.5,0.4-2.1,0.3-1.2-2.7c0.6-1.9-6.7,6.2-6.7,6.2
	s1.6,9.6,2.4,7.3c2.2-6.5,7.4-7.3,10.6-5.3s7.3,7.8,9.5,10.4c5.8,7,10.5,15.1,29.2,17.7c39,5.6,69.9-21.4,71.8-52.7
	C158.5,31.8,131.5,5.2,96,2.1z"/>
</svg>
