<?xml version="1.0" encoding="utf-8"?>
<!-- Generator: Adobe Illustrator 25.4.1, SVG Export Plug-In . SVG Version: 6.00 Build 0)  -->
<svg version="1.1" id="Слой_1" xmlns="http://www.w3.org/2000/svg" xmlns:xlink="http://www.w3.org/1999/xlink" x="0px" y="0px"
	 viewBox="0 0 325 397.9" style="enable-background:new 0 0 325 397.9;" xml:space="preserve">
<style type="text/css">
	.st0{fill:#007934;}
</style>
<path class="st0" d="M17.1,382.3h-6v15.1H7.7v-18.1h9.4V382.3z"/>
<path class="st0" d="M35.1,384.8c0.1,1.6-0.5,3.2-1.6,4.3c-1.3,1.1-3,1.6-4.7,1.5h-2v6.9h-3.4v-18.1h4.9
	C32.8,379.4,35.1,381.2,35.1,384.8z M31.7,384.9c0-1.8-1.3-2.8-3.8-2.8h-1.1v5.6H28C30.5,387.8,31.7,386.8,31.7,384.9z"/>
<path class="st0" d="M56.1,379.4l-8.7,18.1h-3.7l2.8-5.5l-6.7-12.6h4l4.5,9l4.1-9H56.1z"/>
<path class="st0" d="M76.2,397.4h-3.4v-15.1h-7.7v15.1h-3.4v-18.1h14.5V397.4z"/>
<path class="st0" d="M98.2,397.4h-3.4v-15.1h-7.7v15.1h-3.4v-18.1h14.4V397.4z"/>
<path class="st0" d="M122.1,397.4h-3.6l-1.5-4.1h-7.8l-1.6,4.1h-3.6l7.2-18.1h3.6L122.1,397.4z M115.9,390.5l-2.8-7.3l-2.8,7.3
	H115.9z"/>
<path class="st0" d="M154.8,397.4h-4.4l-7-8.8v8.8H140v-18.1h3.4v8l6.8-8h4.3l-7.7,8.5L154.8,397.4z"/>
<path class="st0" d="M178.2,388.4c0,2.5-1,5-2.8,6.7c-3.9,3.7-9.9,3.7-13.8,0c-3.7-3.6-3.8-9.6-0.2-13.3c0.1-0.1,0.1-0.1,0.2-0.2
	c3.9-3.7,9.9-3.7,13.8,0C177.2,383.4,178.2,385.9,178.2,388.4z M174.7,388.4c0-3.4-2.8-6.1-6.2-6.1c-3.4,0-6.1,2.8-6.1,6.2
	s2.8,6.1,6.2,6.1c1.6,0,3.1-0.7,4.3-1.8C174.1,391.7,174.7,390.1,174.7,388.4L174.7,388.4z"/>
<path class="st0" d="M204.5,397.4h-3.4l-1.8-12.1l-4,12.1h-2.9l-4-12.1l-1.7,12.1h-3.4l2.9-18.1h3.6l4,13.6l4.1-13.6h3.7
	L204.5,397.4z"/>
<path class="st0" d="M224.9,397.4h-3.4v-15.1h-7.7v15.1h-3.4v-18.1h14.4V397.4z"/>
<path class="st0" d="M248.8,397.4h-3.6l-1.6-4.1h-7.8l-1.6,4.1h-3.6l7.2-18.1h3.6L248.8,397.4z M242.6,390.5l-2.8-7.3l-2.8,7.3
	H242.6z"/>
<path class="st0" d="M269.2,397.4h-3.4v-8.1h-7.8v8.1h-3.4v-18.1h3.4v7.1h7.8v-7.1h3.4V397.4z"/>
<path class="st0" d="M292.2,397.4h-3.4v-13l-8.6,13h-3.4v-18.1h3.4v13l8.6-13h3.4V397.4z"/>
<path class="st0" d="M315,397.4h-3.4v-13l-8.6,13h-3.4v-18.1h3.4v13l8.6-13h3.4V397.4z M311.8,374c0,1.1-0.5,2.2-1.3,3
	c-0.8,0.8-2,1.3-3.1,1.3c-1.2,0-2.3-0.4-3.1-1.3c-0.8-0.8-1.3-1.9-1.3-3h2.5c0,0.5,0.2,1.1,0.5,1.5c0.3,0.4,0.9,0.6,1.4,0.6
	c0.5,0,1-0.2,1.4-0.6c0.4-0.4,0.5-0.9,0.5-1.5H311.8z"/>
<path class="st0" d="M98.7,281.9h15.4c0.8,0,1.4,0.6,1.4,1.4v44.5c0,0.8,0.7,1.4,1.4,1.4c0.4,0,0.7-0.1,0.9-0.4
	c6.3-5.9,13.5-13.2,21.7-22c8.6-9.3,15.9-17.4,21.7-24.5c0.3-0.3,0.7-0.5,1.1-0.5h7.2c0.8,0,1.4,0.6,1.4,1.4l0,0v69.3
	c0,0.8-0.6,1.4-1.4,1.4h0h-15.4c-0.8,0-1.4-0.6-1.4-1.4l0,0v-44.9c0-0.8-0.6-1.4-1.4-1.4c-0.4,0-0.7,0.1-1,0.4
	c-6.4,6.4-13.6,13.8-21.5,22.3c-8.7,9.3-16,17.5-22,24.5c-0.3,0.3-0.7,0.5-1.1,0.5h-7c-0.8,0-1.4-0.6-1.4-1.4l0,0v-69.3
	C97.3,282.6,97.9,282,98.7,281.9z"/>
<path class="st0" d="M184.4,283.6c0-0.8,0.6-1.4,1.4-1.4c0,0,0,0,0,0h30c7,0,12.5,1.1,16.7,3.4c4.8,2.3,7.7,7.3,7.5,12.6
	c0,4.6-2,8.5-6.1,11.5c-4.1,2.9-8.9,4.7-13.9,5.1v1c5.8,0.6,10.6,1.9,14.2,4.1c4.8,2.6,7.8,7.7,7.7,13.1c0,6.8-3.1,12-9.2,15.7
	c-5.3,3.2-12.1,4.8-20.2,4.8h-26.7c-0.8,0-1.4-0.6-1.4-1.4c0,0,0,0,0,0V283.6z M202.5,311.6c0,0.8,0.6,1.4,1.4,1.4c0,0,0,0,0,0h2.5
	c2,0,4-0.1,5.9-0.4c1.7-0.4,3.2-1.2,4.6-2.3c1.6-1.2,2.9-2.9,3.7-4.7c0.9-1.9,1.3-4,1.3-6.1c0-3.8-1.1-6.6-3.4-8.6
	c-2.3-2-5.5-2.9-9.6-2.9l-5,0.2c-0.8,0-1.4,0.7-1.4,1.4L202.5,311.6z M202.5,346.1c0,0.8,0.6,1.4,1.4,1.4h4.8c3.6,0,7.2-1.3,9.9-3.7
	c3-2.5,4.6-6.2,4.4-10c0-5.4-1.8-9.3-5.4-11.6c-2.9-1.9-7.5-2.9-13.8-3c-0.8,0-1.4,0.6-1.4,1.4c0,0,0,0,0,0V346.1z"/>
<path class="st0" d="M265.5,332.2c-0.6,0-1.1,0.4-1.3,0.9c-2.4,5.9-4.2,10.3-5.3,13.1c-1,2.5-1.8,4.8-2.5,6.8
	c-0.2,0.6-0.8,1.1-1.5,1l-8-0.1c-0.8,0.1-1.5-0.5-1.5-1.3c0-0.2,0-0.5,0.1-0.7l33.4-69.9c0.2-0.5,0.7-0.8,1.3-0.8h7.4
	c0.6,0,1.1,0.3,1.3,0.8l32.6,70c0.3,0.7,0,1.5-0.7,1.9c-0.2,0.1-0.4,0.1-0.7,0.1c-1,0-16.8,0-17.6,0c-0.6,0-1.2-0.3-1.4-0.9
	c-1.7-4.6-2.9-8-3.8-10.2c-1.5-3.8-2.9-7.1-4.1-9.9c-0.2-0.5-0.7-0.8-1.3-0.8L265.5,332.2z M289.2,323.8l-8.7-19.6
	c-0.3-0.7-1.2-1-1.9-0.7c-0.3,0.1-0.6,0.4-0.7,0.7l-9.2,19.6c-0.3,0.7,0,1.6,0.7,1.9c0.2,0.1,0.4,0.1,0.6,0.1h17.9
	c0.8,0,1.4-0.6,1.4-1.4C289.3,324.2,289.3,324,289.2,323.8L289.2,323.8z"/>
<path class="st0" d="M86.4,346.3h-4.6c-0.5-0.2-0.9-0.5-1.2-0.9c-5.1-10.8-24.2-53.1-28.2-62.8c-0.2-0.4-0.6-0.7-1.1-0.7
	c-0.5,0-1.1,0.1-1.8,0.2c-0.9,0.1-1.8,0.2-2.7,0.2c-0.9,0-1.7-0.1-2.5-0.2c-0.7-0.1-1.3-0.1-1.8-0.2c-0.5,0-0.9,0.2-1.1,0.7
	c-3.2,7.8-6.3,14.8-9.2,21c-2.7,5.8-16.4,34.3-19.9,41.1c-0.2,0.4-0.6,0.7-0.9,1H4.9c-0.8,0-1.4,0.6-1.4,1.4c0,0.1,0,0.2,0,0.2
	L5.1,358c0.1,0.8,0.9,1.3,1.6,1.1c0.1,0,0.2,0,0.2-0.1c3.8-1.5,14.5-4.8,37-5.2c23.3-0.4,35,3.6,38.9,5.2c0.7,0.3,1.6,0,1.9-0.7
	c0-0.1,0-0.1,0.1-0.2l2.9-10.1c0.2-0.8-0.2-1.5-1-1.8C86.6,346.3,86.5,346.3,86.4,346.3z M22.7,344.1c2.5-6.2,14.5-32.7,17.6-39.4
	c0.3-0.7,1.1-1,1.9-0.7c0.3,0.1,0.6,0.4,0.7,0.7c2.8,6.5,14.2,33,16.7,39.4c0.3,0.7-0.1,1.5-0.8,1.8c-0.1,0.1-0.3,0.1-0.5,0.1
	c-0.3,0-1,0-2,0l-32.9-0.2C22.8,345.5,22.5,344.8,22.7,344.1z"/>
<path class="st0" d="M198.9,2.8C187.8,0.9,176.5,0,165.3,0c-21.3,0.2-42.5,3.8-62.7,10.6c-19.8,6.7-38.7,16.1-56,27.9
	C38,44.3,29.8,50.7,22,57.7c-3.9,3.5-7.6,7.3-11,11.3c-3.3,4-6.6,8.2-8.8,13.3C0,87.3-0.6,93,0.7,98.4c0.6,2.6,1.5,5.1,2.7,7.5
	c1.2,2.3,2.4,4.6,3.9,6.8c2.9,4.3,6.1,8.3,9.5,12.1c3.4,3.8,4,3.3,0.9-0.7c-3.1-4-5.9-8.2-8.5-12.6c-1.2-2.2-2.3-4.4-3.2-6.7
	c-0.9-2.3-1.5-4.6-1.9-7C3.2,93.1,4,88.3,6.3,84.2c2.2-4.2,5.5-7.9,9-11.5c3.5-3.5,7.2-6.8,11.1-9.8c7.9-6.1,16.3-11.7,25-16.6
	c17.4-9.9,35.7-18.8,55.1-22.3c47.8-8.8,62.6-5.4,66.1-5.2c65.7,3.9,116.4,51.6,113.2,106.7c-3.2,55.1-47.5,96.4-113.2,91.7
	c-26.5-1.9-49.2-27-57.2-35.6c-6.6-7.1-11.3-10.7-16.2-12.7c-3.1-1.3-8.5-2.7-13.8-1.2c-3,0.8-4.5,0.5-2.6-5.6
	c0.1-0.2,0.1-0.4,0.1-0.5c12.8-39.8,31.2-95.8,31.2-95.8S42.3,227.1,39,234c-0.9,1.8-0.2,2.4,1.5,2.4c7.1,0,27.8,0,36.7,0
	c1.7,0,2.7-1,0.9-2.5s-5.7-7.4-7.4-13.7c-1.7-6.9-1.6-14.2,0.4-21.1c0.5-1.6,1.4-4.6,2.6-8.5c0.1-0.1,0.2-0.3,0.3-0.6
	c4.5-13.4,15.3-15.2,21.9-10.9c6.4,4.2,15.2,16.2,19.7,21.6c12,14.5,21.8,31.2,60.5,36.8C257,249,321,193.1,324.8,128.2
	C328.6,64.5,272.5,9.2,198.9,2.8z"/>
</svg>
