<svg xmlns="http://www.w3.org/2000/svg" viewBox="0 0 336.95 430.63"><defs><style>.a{fill:#007934;}.b{fill:#61a60e;}</style></defs><path class="a" d="M74,199.11a37,37,0,0,0-1.12,17.34c.81,7.6,5.89,15.66,8.08,17.44,1.92,1.55.84,2.52-.89,2.53-8.86,0-29.63,0-36.69,0-1.72,0-2.41-.55-1.53-2.39,3.31-6.89,75.23-168.22,75.23-168.22S78.36,184.85,74,199.11Z"/><path class="a" d="M327.75,128.2c3.74-63.65-52.3-119-126-125.36A191.35,191.35,0,0,0,168.2,0a200.23,200.23,0,0,0-62.66,10.6,232.8,232.8,0,0,0-56,27.89A218.52,218.52,0,0,0,25,57.68,107.48,107.48,0,0,0,14,69c-3.26,4-6.56,8.23-8.8,13.26A25,25,0,0,0,3.58,98.39a36.93,36.93,0,0,0,2.65,7.53,63.76,63.76,0,0,0,3.88,6.79,107,107,0,0,0,9.51,12.13c3.41,3.82,4,3.32.86-.71A106.82,106.82,0,0,1,12,111.55a62,62,0,0,1-3.22-6.74,33.77,33.77,0,0,1-1.92-7A21,21,0,0,1,9.24,84.18c2.23-4.17,5.52-7.87,9-11.51a100.91,100.91,0,0,1,11.13-9.82,210.47,210.47,0,0,1,25-16.59c17.39-9.89,35.71-18.76,55.11-22.34,47.8-8.81,62.56-5.43,66.08-5.22C241.28,22.56,292,70.35,288.71,125.43a84.66,84.66,0,0,1-2.6,16.38l38.55,6A101.1,101.1,0,0,0,327.75,128.2Z"/><path class="a" d="M105.49,282.56H120.9a1.41,1.41,0,0,1,1.42,1.42v44.51a1.41,1.41,0,0,0,2.38,1q9.42-8.83,21.7-22,12.94-13.92,21.72-24.45a1.39,1.39,0,0,1,1.08-.5h7.16a1.42,1.42,0,0,1,1.42,1.42V353.3a1.43,1.43,0,0,1-1.42,1.42H161a1.43,1.43,0,0,1-1.42-1.42V308.42a1.41,1.41,0,0,0-2.41-1q-9.66,9.61-21.48,22.3-13,14-22,24.52a1.42,1.42,0,0,1-1.07.49h-7.06a1.42,1.42,0,0,1-1.41-1.42V284A1.41,1.41,0,0,1,105.49,282.56Z"/><path class="a" d="M191.25,284.21a1.41,1.41,0,0,1,1.41-1.41h30q10.47,0,16.66,3.35a13.42,13.42,0,0,1,7.55,12.58q0,6.91-6.09,11.53a28.61,28.61,0,0,1-13.86,5.14v1q8.76.84,14.23,4.08a14.45,14.45,0,0,1,7.66,13.21q0,10.19-9.24,15.73-8,4.83-20.19,4.82H192.66a1.41,1.41,0,0,1-1.41-1.41Zm18.12,28a1.42,1.42,0,0,0,1.41,1.42h2.48a32.17,32.17,0,0,0,5.9-.42,11.23,11.23,0,0,0,4.56-2.31,12.23,12.23,0,0,0,3.71-4.71,14.67,14.67,0,0,0,1.27-6.09q0-5.65-3.4-8.59t-9.61-2.94l-5,.25a1.41,1.41,0,0,0-1.34,1.41Zm0,34.5a1.41,1.41,0,0,0,1.41,1.41h4.79a15,15,0,0,0,9.91-3.72,12.39,12.39,0,0,0,4.44-10q0-8.17-5.35-11.64-4.41-2.82-13.77-3a1.4,1.4,0,0,0-1.43,1.41Z"/><path class="a" d="M272.29,332.81a1.42,1.42,0,0,0-1.32.89q-3.62,8.85-5.29,13.13c-1,2.54-1.83,4.81-2.51,6.82a1.41,1.41,0,0,1-1.47,1l-8-.12a1.42,1.42,0,0,1-1.4-2l33.33-69.81a1.41,1.41,0,0,1,1.27-.81h7.45a1.41,1.41,0,0,1,1.28.82l32.59,70a1.41,1.41,0,0,1-1.34,2c-1,0-16.84,0-17.56,0a1.43,1.43,0,0,1-1.42-.94q-2.52-6.92-3.77-10.17-2.22-5.66-4.12-9.92a1.41,1.41,0,0,0-1.3-.82Zm23.7-8.39-8.68-19.59a1.42,1.42,0,0,0-2.58,0l-9.17,19.59a1.42,1.42,0,0,0,1.29,2H294.7A1.41,1.41,0,0,0,296,324.42Z"/><path class="a" d="M93.24,347l-4.62,0a2.62,2.62,0,0,1-1.23-.9c-5.08-10.76-24.17-53.1-28.24-62.77a1.08,1.08,0,0,0-1.06-.66c-.49,0-1.08.1-1.78.19a21.62,21.62,0,0,1-2.68.22,21,21,0,0,1-2.55-.22c-.7-.09-1.29-.15-1.78-.19a1.1,1.1,0,0,0-1.07.68q-4.83,11.64-9.19,21c-2.68,5.87-16.41,34.31-19.87,41.17a3.47,3.47,0,0,1-1,1l-6.52,0a1.42,1.42,0,0,0-1.41,1.63L12,358.59a1.4,1.4,0,0,0,1.91,1.1c3.76-1.49,14.51-4.77,37.05-5.19,23.29-.43,35,3.57,38.88,5.23a1.41,1.41,0,0,0,1.91-.92l2.89-10.05A1.42,1.42,0,0,0,93.24,347Zm-63.67-2.17c2.51-6.2,14.47-32.7,17.61-39.41a1.41,1.41,0,0,1,2.58,0c2.77,6.46,14.17,33.05,16.66,39.41a1.42,1.42,0,0,1-1.27,1.92l-2,0-32.95-.21A1.41,1.41,0,0,1,29.57,344.78Z"/><path class="b" d="M89.37,166.74c10.41-11.1,37.32-34,76.65-43.66,11.32-11.86,20-23.5,23.19-28.73-1.83,5.72-5.22,14.67-15.59,27.05q5.32-1,10.92-1.69a113.19,113.19,0,0,1,24.86-.16c10.92-34.52,0-63,0-63s-8.33,8.8-29.48,23.08-38.7,17.77-63.5,43.44c-9.71,10.05-21.66,29.4-25.65,39.26A30.76,30.76,0,0,0,89.37,166.74Z"/><path class="b" d="M286,146.34c-33.38-7.11-61.84-25.34-100.78-20.75C126.09,132.56,92.12,172,90,175.1a161.94,161.94,0,0,1,19.59-5.42c8.12-1.74,16.31-3,24.52-4s16.45-1.61,24.72-1.88a174.87,174.87,0,0,1,24.84.72c8.21,1,16.31,2.35,24.4,3.86s16.1,3.2,24.17,4.46a117.91,117.91,0,0,0,24.39,1.6A137.8,137.8,0,0,0,280.93,171a138.83,138.83,0,0,1-24.23,4.3,119,119,0,0,1-24.67-.78c-8.18-1-16.26-2.44-24.36-3.65s-16.21-2.28-24.31-3a171.55,171.55,0,0,0-24.31.08c-8.12.53-16.22,1.43-24.27,2.64s-16,2.73-23.89,4.69a143.26,143.26,0,0,0-21.81,7.09v.1c11.28,22,45.31,63.95,121.85,51.84S335.75,153,335.75,153,319.4,153.46,286,146.34Z"/><path class="b" d="M51.64,421.63l-3.26,9H45.57a39,39,0,0,1-5.32-.33,11.71,11.71,0,0,1-3.9-1.14A4.2,4.2,0,0,1,34.29,427a5,5,0,0,1,.11-3.41l.76-1.95H12.38a29.32,29.32,0,0,1-5.53-.49,14.06,14.06,0,0,1-4.12-1.41A6,6,0,0,1,.4,417.56a3.38,3.38,0,0,1-.16-2.87L6.85,396.9A6.53,6.53,0,0,1,9,394.08a14.94,14.94,0,0,1,4-2.22,25.28,25.28,0,0,1,5.15-1.41A33.82,33.82,0,0,1,24,390H46.76L50,381.07h2.82a40.73,40.73,0,0,1,5.31.32,11.78,11.78,0,0,1,3.91,1.14,4.28,4.28,0,0,1,2.06,2.17,5.13,5.13,0,0,1-.11,3.42L63.24,390H85.69q6.72,0,10.25,1.79c2.34,1.19,3.09,2.95,2.22,5.26l-6.51,17.78a6.54,6.54,0,0,1-2.28,3.09,14.69,14.69,0,0,1-4,2.12,25.18,25.18,0,0,1-5.26,1.25,46.41,46.41,0,0,1-6,.38Zm-14.1-6.94,1.08-3,5.43-14.53H23.23l-6.51,17.57Zm17.68-2.39-.87,2.39H75.17l6.51-17.57H60.86Z"/><path class="b" d="M172,403.41q-1.31,3.57-7,5.37a47.92,47.92,0,0,1-14.15,1.78H126.24a10.9,10.9,0,0,1,1.41-2.38,10,10,0,0,1,2.5-2.33,14.58,14.58,0,0,1,3.63-1.74,14.86,14.86,0,0,1,4.72-.7h16.91l2.28-6.29H124.51L117.68,416a10.37,10.37,0,0,1-6.62,6.5,22.65,22.65,0,0,1-5.36,1.14c-1.92.18-3.85.27-5.81.27H98.27L110.63,390h51.18q6.72,0,10.25,1.84t2.22,5.32Z"/><path class="b" d="M244.12,403.41q-1.31,3.69-6.94,5.42a48.12,48.12,0,0,1-14,1.73H191.74l-2.38,6.4h49.77a6.9,6.9,0,0,1-2.28,3.15,14.41,14.41,0,0,1-3.95,2.17,23.68,23.68,0,0,1-5.21,1.24,44.82,44.82,0,0,1-6,.38H170.38L180.14,397a6.37,6.37,0,0,1,2.22-2.82,16.13,16.13,0,0,1,4-2.22,28.1,28.1,0,0,1,5.21-1.47,31.3,31.3,0,0,1,5.8-.54H234c4.49,0,7.87.62,10.14,1.84s3,3,2.23,5.32H196.62l-2.27,6.29Z"/><path class="b" d="M258.87,423.9a37.12,37.12,0,0,1-5.59-.38,14.09,14.09,0,0,1-4.28-1.24,5.42,5.42,0,0,1-2.44-2.17,3.8,3.8,0,0,1-.06-3.15l9.87-27h1.85a55,55,0,0,1,5.64.27,14.8,14.8,0,0,1,4.33,1,4.43,4.43,0,0,1,2.39,2.17,4.75,4.75,0,0,1-.11,3.58L263.2,417h15.29l9.87-27h2a44.08,44.08,0,0,1,5.53.33,13.75,13.75,0,0,1,4.28,1.13,4.7,4.7,0,0,1,2.33,2.23,4.75,4.75,0,0,1-.11,3.58L295.2,417h15.29l7.37-20.06a7.63,7.63,0,0,1,2.44-3.52,12.46,12.46,0,0,1,4-2.12,24.36,24.36,0,0,1,5.1-1q2.76-.27,5.8-.27H337L324.58,423.9Z"/></svg>