<svg xmlns="http://www.w3.org/2000/svg" viewBox="0 0 595.29 187.71"><defs><style>.a{fill:#007934;}.b{fill:#61a60e;}</style></defs><path class="a" d="M20.18,140.3H4.42A1.3,1.3,0,0,1,3.12,139V69.22a1.3,1.3,0,0,1,1.3-1.29H33.23q26.18,0,26.19,17.83,0,13.08-10.65,18.46-8.51,4.27-26,4.42a1.31,1.31,0,0,0-1.29,1.3V139A1.3,1.3,0,0,1,20.18,140.3Zm1.3-38.77a1.3,1.3,0,0,0,1.32,1.3,41.18,41.18,0,0,0,6.75-.72A13.87,13.87,0,0,0,38,96.71a15.66,15.66,0,0,0,2.45-9A15.24,15.24,0,0,0,37.2,77.59a10.19,10.19,0,0,0-8.13-3.86h-6.3A1.29,1.29,0,0,0,21.48,75Z"/><path class="a" d="M110.21,141.57q-20.56,0-32.93-9.9T64.92,104A33.46,33.46,0,0,1,77.53,77.09Q90.75,66,113.14,66q23.62,0,35.62,12.64a34.86,34.86,0,0,1,9.67,24.86q0,16-12.85,26.77Q132.11,141.57,110.21,141.57ZM85.24,107q0,11.58,5.87,19.27,6.86,9,19.71,9,13.34,0,20.68-10.22,6.62-9.27,6.61-23.49,0-11.58-5.87-19.59-7.11-9.59-20-9.58T92.46,80.78Q85.25,89.63,85.24,107Z"/><path class="a" d="M355.12,67.92h15.59a1.3,1.3,0,0,1,1.29,1.3v45.07a1.28,1.28,0,0,0,2.15.95Q383.6,106.33,396,93q12.91-14,21.66-24.57a1.27,1.27,0,0,1,1-.46h7.32a1.29,1.29,0,0,1,1.28,1.3V139a1.28,1.28,0,0,1-1.28,1.29h-15.6a1.28,1.28,0,0,1-1.28-1.29V93.55a1.28,1.28,0,0,0-2.19-.92q-9.71,9.72-21.6,22.59-13,14-22,24.63a1.27,1.27,0,0,1-1,.45h-7.21a1.29,1.29,0,0,1-1.29-1.29V69.22A1.3,1.3,0,0,1,355.12,67.92Z"/><path class="a" d="M440.31,67.93h15.57a1.28,1.28,0,0,1,1.28,1.29v26a1.27,1.27,0,0,0,1.26,1.29c2.42,0,5.51.11,9.25.26q6.66.27,8,.27,4.23,0,6.89-.11,7.74-.31,10.37-.39a1.29,1.29,0,0,0,1.24-1.3v-26a1.28,1.28,0,0,1,1.28-1.29H511a1.28,1.28,0,0,1,1.28,1.29V139A1.28,1.28,0,0,1,511,140.3H495.43a1.28,1.28,0,0,1-1.28-1.29V106.25a1.3,1.3,0,0,0-1.27-1.3c-2.19,0-5.34-.09-9.43-.2l-7.8-.21q-4.23,0-9.67.15l-7.59.23a1.28,1.28,0,0,0-1.23,1.3V139a1.28,1.28,0,0,1-1.28,1.29H440.31A1.28,1.28,0,0,1,439,139V69.22A1.28,1.28,0,0,1,440.31,67.93Z"/><path class="a" d="M539.24,118.54a1.3,1.3,0,0,0-1.19.8q-3.62,8.85-5.3,13.13-1.53,3.9-2.56,7a1.27,1.27,0,0,1-1.21.87h-8.54a1.28,1.28,0,0,1-1.16-1.83l33.4-69.82a1.3,1.3,0,0,1,1.16-.72h7.58a1.27,1.27,0,0,1,1.16.73l32.59,69.82A1.28,1.28,0,0,1,594,140.3H576.09a1.29,1.29,0,0,1-1.21-.85q-2.55-7-3.81-10.24-2.22-5.67-4.14-9.93a1.25,1.25,0,0,0-1.16-.74ZM563,110.39l-8.84-19.9a1.28,1.28,0,0,0-2.33,0l-9.33,19.9a1.28,1.28,0,0,0,1.16,1.82h18.17A1.27,1.27,0,0,0,563,110.39Z"/><path class="a" d="M189.86,119.12a22.15,22.15,0,0,0-.67,10.37c.49,4.54,3.53,9.37,4.84,10.43,1.15.93.5,1.51-.53,1.51-5.3,0-17.73,0-22,0-1,0-1.44-.33-.91-1.43,2-4.12,45-100.64,45-100.64S192.45,110.59,189.86,119.12Z"/><path class="a" d="M341.65,76.7c2.23-38.09-31.3-71.18-75.37-75A114.89,114.89,0,0,0,246.19,0a119.88,119.88,0,0,0-37.48,6.34A139.07,139.07,0,0,0,175.19,23,131.28,131.28,0,0,0,160.51,34.5,65.57,65.57,0,0,0,154,41.26a36.31,36.31,0,0,0-5.27,7.94,15,15,0,0,0-1,9.66,22.34,22.34,0,0,0,1.59,4.51,37.7,37.7,0,0,0,2.32,4.06,63.6,63.6,0,0,0,5.69,7.26c2,2.28,2.37,2,.51-.43a63.91,63.91,0,0,1-5.06-7.53,35.39,35.39,0,0,1-1.93-4,20.56,20.56,0,0,1-1.15-4.21,12.64,12.64,0,0,1,1.42-8.13,33,33,0,0,1,5.36-6.89,61.55,61.55,0,0,1,6.66-5.87,127.62,127.62,0,0,1,15-9.93c10.41-5.91,21.37-11.22,33-13.36,28.59-5.27,37.42-3.25,39.52-3.13C289.91,13.5,320.23,42.09,318.29,75a50.46,50.46,0,0,1-1.56,9.8l23.07,3.59A61.44,61.44,0,0,0,341.65,76.7Z"/><path class="b" d="M199,99.75c6.22-6.64,22.32-20.35,45.85-26.12a119.61,119.61,0,0,0,13.87-17.19c-1.09,3.42-3.12,8.78-9.32,16.19q3.18-.61,6.53-1a67.38,67.38,0,0,1,14.87-.1,62,62,0,0,0,0-37.67s-5,5.26-17.64,13.81-23.15,10.63-38,26c-5.81,6-13,17.59-15.35,23.49A17.23,17.23,0,0,0,199,99.75Z"/><path class="b" d="M316.67,87.55c-20-4.26-37-15.17-60.29-12.42-35.38,4.17-55.7,27.78-57,29.62a98.55,98.55,0,0,1,11.72-3.24c4.86-1,9.76-1.81,14.67-2.39s9.84-1,14.79-1.13a105.5,105.5,0,0,1,14.86.43c4.91.61,9.76,1.41,14.6,2.31s9.63,1.91,14.46,2.67a70.58,70.58,0,0,0,14.59,1,83,83,0,0,0,14.52-2.08,83.48,83.48,0,0,1-14.49,2.58,72.13,72.13,0,0,1-14.76-.47c-4.89-.6-9.73-1.46-14.57-2.19s-9.7-1.36-14.55-1.8a102.28,102.28,0,0,0-14.54,0c-4.86.32-9.71.86-14.52,1.58s-9.59,1.63-14.29,2.8a88.44,88.44,0,0,0-13,4.24v.07c6.75,13.16,27.11,38.26,72.89,31s74.68-48.6,74.68-48.6S336.65,91.8,316.67,87.55Z"/><path class="a" d="M14.06,183.47a10.4,10.4,0,0,1-4.4,1.07,9.48,9.48,0,0,1-7-2.65A9.2,9.2,0,0,1,0,175.06a9,9,0,0,1,2.85-6.82,9.51,9.51,0,0,1,6.83-2.66A8.78,8.78,0,0,1,14,166.66v4a5.87,5.87,0,0,0-4.49-1.9,5.83,5.83,0,0,0-4.3,1.71,6.81,6.81,0,0,0,0,9.15,5.87,5.87,0,0,0,4.31,1.67,6.22,6.22,0,0,0,4.51-1.89Z"/><path class="a" d="M30.09,169H23.47v4.12h6.36v3H23.47v5.11h6.6v3h-10V166h10Z"/><path class="a" d="M49.28,184.11H45.89V169H40.57v9.14a9.48,9.48,0,0,1-.75,4.37,3.77,3.77,0,0,1-3.62,1.8,7.19,7.19,0,0,1-1.8-.24l.31-3a3.59,3.59,0,0,0,1.11.23,1.14,1.14,0,0,0,1.12-.6,6.89,6.89,0,0,0,.34-2.68V166h12Z"/><path class="a" d="M67.75,178.57A4.87,4.87,0,0,1,65.5,183a8,8,0,0,1-4.4,1.14H55.72V166h3.39v7h2a8,8,0,0,1,4.41,1.16A4.91,4.91,0,0,1,67.75,178.57Zm-3.39,0q0-2.79-3.5-2.79H59.11v5.54h1.75a4.49,4.49,0,0,0,2.61-.6A2.49,2.49,0,0,0,64.36,178.57Z"/><path class="a" d="M86.35,183.47a10.4,10.4,0,0,1-4.4,1.07,9.48,9.48,0,0,1-7-2.65,9.2,9.2,0,0,1-2.69-6.83,9,9,0,0,1,2.85-6.82A9.51,9.51,0,0,1,82,165.58a8.78,8.78,0,0,1,4.36,1.08v4a6.26,6.26,0,0,0-8.79-.19,6.81,6.81,0,0,0,0,9.15,5.87,5.87,0,0,0,4.31,1.67,6.22,6.22,0,0,0,4.51-1.89Z"/><path class="a" d="M107.18,184.11h-4.44l-7-8.84v8.84H92.37V166h3.39v8l6.78-8h4.28l-7.7,8.54Z"/><path class="a" d="M129.42,175.06a9,9,0,0,1-2.82,6.72,10,10,0,0,1-13.79,0,9.39,9.39,0,0,1,0-13.44,10,10,0,0,1,13.79,0A9,9,0,0,1,129.42,175.06Zm-3.46,0a6.25,6.25,0,1,0-12.5,0,6.25,6.25,0,1,0,12.5,0Z"/><path class="a" d="M149,184.11h-4l-4.3-6.74-4.29,6.74h-4l6.33-9.55L133.43,166h4.07l3.24,5.7L144,166h4.08l-5.38,8.54Z"/><path class="a" d="M171.51,175.06a9,9,0,0,1-2.83,6.72,10,10,0,0,1-13.78,0,9.39,9.39,0,0,1,0-13.44,10,10,0,0,1,13.78,0A9,9,0,0,1,171.51,175.06Zm-3.46,0a6.25,6.25,0,1,0-12.5,0,6.25,6.25,0,1,0,12.5,0Z"/><path class="a" d="M189.15,178.88a5.08,5.08,0,0,1-2,4.14,7,7,0,0,1-4.57,1.52,7.76,7.76,0,0,1-6.48-3.36l1.9-2.06a4.88,4.88,0,0,0,4.32,2.47,3.29,3.29,0,0,0,2.39-.84,2.74,2.74,0,0,0,.8-2,2.52,2.52,0,0,0-.92-2,4,4,0,0,0-2.61-.77h-1.9v-2.75H182a3.42,3.42,0,0,0,2.22-.66,2.13,2.13,0,0,0,.8-1.75c0-1.54-.91-2.32-2.74-2.32a4.79,4.79,0,0,0-3.83,1.75l-1.47-2.27a7.84,7.84,0,0,1,5.73-2.43,6.55,6.55,0,0,1,4.25,1.3,4.47,4.47,0,0,1,1.64,3.64,4.11,4.11,0,0,1-.71,2.37,4,4,0,0,1-1.91,1.51A4.43,4.43,0,0,1,189.15,178.88Z"/><path class="a" d="M206.29,184.11h-3.36V177h-.8l-4.65,7.15h-3.82l5.15-7.44a5.22,5.22,0,0,1-3.1-1.68,4.74,4.74,0,0,1-1.13-3.24,5.13,5.13,0,0,1,2.21-4.57,7.12,7.12,0,0,1,4.15-1.16h5.35Zm-3.36-9.6v-5.59h-1.44q-3.56,0-3.55,2.73t3.71,2.86Z"/><path class="a" d="M228.05,184.11h-3.38v-13l-8.59,13h-3.39V166h3.39v13l8.59-13h3.38Zm-3.27-23.4a4.09,4.09,0,0,1-1.29,3,4.31,4.31,0,0,1-3.13,1.26,4.26,4.26,0,0,1-3.11-1.26,4.13,4.13,0,0,1-1.27-3h2.5a2.07,2.07,0,0,0,.52,1.46,1.73,1.73,0,0,0,1.36.58,1.78,1.78,0,0,0,1.39-.58,2,2,0,0,0,.54-1.46Z"/><path class="a" d="M247.64,183.47a10.4,10.4,0,0,1-4.4,1.07,9.48,9.48,0,0,1-7-2.65,9.2,9.2,0,0,1-2.69-6.83,9,9,0,0,1,2.85-6.82,9.51,9.51,0,0,1,6.83-2.66,8.78,8.78,0,0,1,4.36,1.08v4a6.26,6.26,0,0,0-8.79-.19,6.81,6.81,0,0,0,0,9.15,5.87,5.87,0,0,0,4.31,1.67,6.22,6.22,0,0,0,4.51-1.89Z"/><path class="a" d="M264,169h-4.19v15.14h-3.39V169h-4.19V166H264Z"/><path class="a" d="M281.07,179a4.56,4.56,0,0,1-1.71,3.82,7.66,7.66,0,0,1-4.84,1.34h-5.45V166h4.78a6.49,6.49,0,0,1,4.32,1.27,4.48,4.48,0,0,1,1.46,3.58,3.58,3.58,0,0,1-.64,2.06,4.17,4.17,0,0,1-1.59,1.41,4.73,4.73,0,0,1,2.67,1.74A4.56,4.56,0,0,1,281.07,179Zm-4.68-7.78c0-1.61-1.06-2.42-3.17-2.42h-.77v4.8h1a3.43,3.43,0,0,0,2.15-.61A2.08,2.08,0,0,0,276.39,171.17Zm1.29,7.61c0-1.78-1.23-2.66-3.69-2.66h-1.54v5.26H274Q277.68,181.38,277.68,178.78Z"/><path class="a" d="M296.67,169h-6.62v4.12h6.37v3h-6.37v5.11h6.6v3h-10V166h10Z"/><path class="a" d="M317.32,184.11h-3.39V176h-7.77v8.09h-3.39V166h3.39v7.12h7.77V166h3.39Z"/><path class="a" d="M338.27,184.11h-3.39V176h-7.77v8.09h-3.39V166h3.39v7.12h7.77V166h3.39Z"/><path class="a" d="M363.22,175.06a9,9,0,0,1-2.82,6.72,10,10,0,0,1-13.79,0,9.39,9.39,0,0,1,0-13.44,10,10,0,0,1,13.79,0A9,9,0,0,1,363.22,175.06Zm-3.45,0a6.18,6.18,0,1,0-1.81,4.43A6,6,0,0,0,359.77,175.06Z"/><path class="a" d="M378.75,169h-6.62v4.12h6.36v3h-6.36v5.11h6.59v3h-10V166h10Z"/><path class="a" d="M410.15,184.11h-3.39V169h-7.68v15.14H395.7V166h14.45Z"/><path class="a" d="M428.24,171.51a5.47,5.47,0,0,1-1.63,4.27,6.78,6.78,0,0,1-4.68,1.46h-2v6.87h-3.39V166h4.92Q428.24,166,428.24,171.51Zm-3.39.1q0-2.78-3.83-2.77h-1.08v5.58h1.2Q424.85,174.42,424.85,171.61Z"/><path class="a" d="M443.65,169H437v4.12h6.37v3H437v5.11h6.6v3h-10V166h10Z"/><path class="a" d="M464.74,187.71h-3v-3.6H451.26v3.6h-3v-6.55c1.68-.07,2.52-1.92,2.52-5.57V166H463v15.14h1.78Zm-5.13-6.55V169H454v7.63q0,3.36-1.53,4.56Z"/><path class="a" d="M484.35,184.11H481V169h-7.68v15.14H469.9V166h14.45Z"/><path class="a" d="M502.44,171.51a5.47,5.47,0,0,1-1.63,4.27,6.78,6.78,0,0,1-4.68,1.46h-2v6.87h-3.39V166h4.92Q502.44,166,502.44,171.51Zm-3.39.1q0-2.78-3.83-2.77h-1.08v5.58h1.2Q499,174.42,499.05,171.61Z"/><path class="a" d="M523.21,184.11h-3.39v-13l-8.59,13h-3.38V166h3.38v13l8.59-13h3.39Z"/><path class="a" d="M540.94,184.11h-3.37V177h-.79l-4.66,7.15H528.3l5.15-7.44a5.22,5.22,0,0,1-3.1-1.68,4.74,4.74,0,0,1-1.13-3.24,5.15,5.15,0,0,1,2.21-4.57,7.12,7.12,0,0,1,4.15-1.16h5.36Zm-3.37-9.6v-5.59h-1.44q-3.55,0-3.55,2.73t3.71,2.86Z"/><path class="a" d="M557.71,169h-4.19v15.14h-3.39V169h-4.19V166h11.77Z"/><path class="a" d="M578.1,184.11h-3.39v-13l-8.59,13h-3.38V166h3.38v13l8.59-13h3.39Z"/><path class="a" d="M594.49,169h-6.62v4.12h6.36v3h-6.36v5.11h6.6v3h-10V166h10Z"/></svg>