<svg xmlns="http://www.w3.org/2000/svg" viewBox="0 0 662.47 68.76"><defs><style>.a{fill:#61a60e;}.b{fill:#007934;}</style></defs><path class="a" d="M287.78,49.13a60.67,60.67,0,0,1,25-21.57,74.34,74.34,0,0,0,6.43-12.23,28.31,28.31,0,0,1-3.76,11.06c1.26-.51,2.55-1,3.89-1.41a41.57,41.57,0,0,1,9.11-1.86A38.73,38.73,0,0,0,323.86,0s-2.42,3.83-9.15,10.61-12.92,9.32-20.16,20.54A58.54,58.54,0,0,0,288,47.42,9.89,9.89,0,0,0,287.78,49.13Z"/><path class="a" d="M358.47,27.4c-12.77-.19-24.53-4.82-38.49-.32-21.2,6.85-30.82,23.79-31.36,25.07a59.9,59.9,0,0,1,6.8-3.4c2.85-1.23,5.76-2.3,8.71-3.25s5.92-1.78,8.93-2.48a65.74,65.74,0,0,1,9.17-1.54c3.09-.22,6.16-.31,9.24-.35s6.14,0,9.19-.11a44.72,44.72,0,0,0,9.07-1.18,51.4,51.4,0,0,0,8.66-3,52.19,52.19,0,0,1-8.58,3.33,44.55,44.55,0,0,1-9.11,1.5c-3.08.23-6.15.28-9.21.43s-6.11.33-9.14.65a65.21,65.21,0,0,0-8.92,1.79c-2.94.79-5.85,1.7-8.71,2.73s-5.69,2.16-8.43,3.45a54.48,54.48,0,0,0-7.49,4.18v0c5.74,7.26,21.27,20.19,48.48,10.2s39.93-38.86,39.93-38.86S371.24,27.59,358.47,27.4Z"/><path class="b" d="M138.45,46.53q-1.3,3.6-7,5.4a48,48,0,0,1-14.22,1.8H92.46a10.76,10.76,0,0,1,1.41-2.4A10.5,10.5,0,0,1,96.38,49a15,15,0,0,1,8.39-2.45h17l2.29-6.32H90.71l-6.86,19a10.5,10.5,0,0,1-6.65,6.54,23,23,0,0,1-5.4,1.14q-2.89.27-5.83.27H64.33L76.76,33h51.45q6.75,0,10.3,1.85c2.36,1.23,3.11,3,2.23,5.34Z"/><path class="b" d="M188.05,49.8,155,67H138.45l12.43-34h1.53q6.85,0,10.3,1.85c2.29,1.23,3,3,2.12,5.34l-4.36,12L190,36.72a21.52,21.52,0,0,1,4.85-2,47.38,47.38,0,0,1,5-1.09c1.6-.25,3.09-.41,4.47-.49h6.54L198.4,67h-1.85a28.17,28.17,0,0,1-5.45-.49A13.82,13.82,0,0,1,187,65.12a5.83,5.83,0,0,1-2.34-2.24,3.55,3.55,0,0,1-.17-2.94Z"/><path class="b" d="M275.33,60.05A6.87,6.87,0,0,1,273,63.21a15.29,15.29,0,0,1-4,2.18,26.24,26.24,0,0,1-5.29,1.31,40.91,40.91,0,0,1-6,.43h-1.53l4.91-13.4H227.58l-4.9,13.4h-1.85a28.1,28.1,0,0,1-5.45-.49,13.51,13.51,0,0,1-4.15-1.42A5.75,5.75,0,0,1,208.89,63a3.55,3.55,0,0,1-.16-2.94L216,40a6.17,6.17,0,0,1,2.18-2.78,16.58,16.58,0,0,1,4-2.18,28.1,28.1,0,0,1,5.23-1.47,32.25,32.25,0,0,1,5.94-.54h1.74l-4.9,13.62h33.57L268.68,33h1.41q6.87,0,10.3,1.85t2.13,5.34Z"/><path class="b" d="M502.15,49.8,469.13,67H452.56L465,33h1.53q6.87,0,10.3,1.85t2.13,5.34l-4.36,12,29.54-15.48a21.33,21.33,0,0,1,4.85-2,47.21,47.21,0,0,1,4.95-1.09c1.6-.25,3.09-.41,4.47-.49h6.54L512.51,67h-1.85a28.28,28.28,0,0,1-5.46-.49,13.82,13.82,0,0,1-4.14-1.41,5.83,5.83,0,0,1-2.34-2.24,3.55,3.55,0,0,1-.16-2.94Z"/><path class="b" d="M561.09,49l23.54,18.09H572a32.39,32.39,0,0,1-5-.32,19.28,19.28,0,0,1-3.33-.82,12.81,12.81,0,0,1-2.34-1.09c-.66-.4-1.31-.78-2-1.15L542.89,51.44l-3.27,9.15a6.54,6.54,0,0,1-2.35,3.11,14,14,0,0,1-4.08,2A28.69,28.69,0,0,1,528,66.81a52.16,52.16,0,0,1-5.77.32h-1.53L533.08,33h16.56l-5.44,15,27-15h18.31Z"/><path class="b" d="M662.12,40.21a5.1,5.1,0,0,1-2.72,2.89,28.41,28.41,0,0,1-3.71,1.58,27.75,27.75,0,0,1-5.4,1.47,34.32,34.32,0,0,1-5.83.49h-1.52l2.4-6.43H611.87l-7.3,19.95h33.57l.44-1c.5-1.46,2.4-2.8,5.66-4a27.78,27.78,0,0,1,5.46-1.47,36.67,36.67,0,0,1,6.1-.49h1.42l-2.51,6.76a7.21,7.21,0,0,1-2.34,3.21,14.38,14.38,0,0,1-4,2.24,26.13,26.13,0,0,1-5.28,1.31,41.14,41.14,0,0,1-6,.43H600.21a28.17,28.17,0,0,1-5.45-.49,13.54,13.54,0,0,1-4.14-1.42A5.84,5.84,0,0,1,588.27,63a3.59,3.59,0,0,1-.16-2.94L595.41,40a6.24,6.24,0,0,1,2.18-2.78,16.78,16.78,0,0,1,4-2.18,28.32,28.32,0,0,1,5.23-1.47,32.33,32.33,0,0,1,5.94-.54h36.74c4.58,0,8,.61,10.41,1.85S663,37.88,662.12,40.21Z"/><path class="b" d="M76.14,25.71A15.34,15.34,0,0,1,74,29.35a9.57,9.57,0,0,1-3.8,3,27.05,27.05,0,0,1-5.62,1.58,49.68,49.68,0,0,1-8.26.53H28.66l-8.47,23A13.35,13.35,0,0,1,13,65.41,20.31,20.31,0,0,1,7.49,66.8a51.88,51.88,0,0,1-5.85.33H0L12.09,34.44a11.71,11.71,0,0,1,3.36-5.09,13.48,13.48,0,0,1,4.7-2.58,21.19,21.19,0,0,1,5.24-.93c1.79-.09,3.41-.13,4.86-.13Z"/><path class="b" d="M405.94,55.49l-9.61-13.77-6.19,16.81a11.43,11.43,0,0,1-6.78,6.55,30.24,30.24,0,0,1-11.48,2h-1.53l15.32-41.42h3.16c.87,0,2,0,3.32.06a23.86,23.86,0,0,1,4.11.53,21.57,21.57,0,0,1,4.05,1.33,7.78,7.78,0,0,1,3.15,2.45L415,45l5.26-3.44.57,5.82Zm3.37,4.76-3.37-4.76,14.84-8.08.56,4.5Zm28.05-30.17a20.64,20.64,0,0,1,5-2.45,39.88,39.88,0,0,1,5.05-1.33,31,31,0,0,1,4.51-.53c1.38,0,2.51-.06,3.38-.06h3.05l-.39.92-.27.8-36.93,20-.57-5.82Zm20.35-2.65-14.65,39.7h-1.53a27.4,27.4,0,0,1-5.69-.53A12.69,12.69,0,0,1,431.65,65a5.1,5.1,0,0,1-2.21-2.65,5.74,5.74,0,0,1,.26-3.84l6.19-16.81L421.34,51.91l-.56-4.5Z"/></svg>