<svg xmlns="http://www.w3.org/2000/svg" viewBox="0 0 560.23 147.9"><defs><style>.a{fill:#007934;}.b{fill:#61a60e;}</style></defs><path class="a" d="M44.43,124.55a23.14,23.14,0,0,0-.7,10.84c.5,4.75,3.68,9.78,5.05,10.9,1.2,1,.52,1.57-.56,1.58H25.29c-1.08,0-1.51-.35-1-1.5,2.07-4.3,47-105.14,47-105.14S47.15,115.64,44.43,124.55Z"/><path class="a" d="M203,80.23c2.33-39.78-32.69-74.38-78.76-78.36A119.78,119.78,0,0,0,103.3.1,125.43,125.43,0,0,0,64.14,6.72a145.48,145.48,0,0,0-35,17.44,135.45,135.45,0,0,0-15.34,12,67.66,67.66,0,0,0-6.88,7.08,37.63,37.63,0,0,0-5.5,8.28,15.72,15.72,0,0,0-1,10.09,23,23,0,0,0,1.66,4.7,40.47,40.47,0,0,0,2.42,4.25,68,68,0,0,0,5.95,7.58c2.13,2.39,2.5,2.07.53-.45a67.17,67.17,0,0,1-5.3-7.86,40.6,40.6,0,0,1-2-4.21,21.36,21.36,0,0,1-1.2-4.38A13.17,13.17,0,0,1,4,52.71a34.34,34.34,0,0,1,5.62-7.19,63.41,63.41,0,0,1,7-6.14A132.31,132.31,0,0,1,32.16,29C43,22.83,54.48,17.29,66.6,15.05c29.88-5.51,39.1-3.39,41.3-3.26C149,14.2,180.68,44.07,178.63,78.5A52.93,52.93,0,0,1,177,88.73l24.1,3.75A63.4,63.4,0,0,0,203,80.23Z"/><path class="a" d="M328.72.65h15.41a1.41,1.41,0,0,1,1.42,1.4V46.58A1.41,1.41,0,0,0,347,48a1.47,1.47,0,0,0,.95-.39q9.42-8.84,21.7-22,12.93-13.92,21.72-24.45a1.39,1.39,0,0,1,1.08-.5h7.16A1.43,1.43,0,0,1,401,2.05h0V71.39a1.44,1.44,0,0,1-1.42,1.42H384.23a1.43,1.43,0,0,1-1.42-1.42V26.51a1.42,1.42,0,0,0-1.41-1.42,1.4,1.4,0,0,0-1,.42q-9.66,9.61-21.48,22.3-13,14-22,24.52a1.42,1.42,0,0,1-1.07.49h-7.06a1.42,1.42,0,0,1-1.41-1.42V2.09A1.41,1.41,0,0,1,328.72.65Z"/><path class="a" d="M414.48,2.3A1.41,1.41,0,0,1,415.89.89h30q10.47,0,16.66,3.35a13.42,13.42,0,0,1,7.55,12.58q0,6.91-6.09,11.53a28.6,28.6,0,0,1-13.86,5.14v1q8.76.84,14.23,4.08A14.45,14.45,0,0,1,472,51.78Q472,62,462.8,67.51q-8,4.83-20.19,4.82H415.89a1.41,1.41,0,0,1-1.41-1.41h0Zm18.12,28A1.42,1.42,0,0,0,434,31.72h2.48a32.42,32.42,0,0,0,5.9-.42A11.28,11.28,0,0,0,447,29a12.29,12.29,0,0,0,3.71-4.71,14.85,14.85,0,0,0,1.27-6.09c0-3.77-1.14-6.63-3.4-8.59s-5.47-2.94-9.61-2.94l-5,.25a1.41,1.41,0,0,0-1.34,1.41Zm0,34.5A1.41,1.41,0,0,0,434,66.21h4.79a15,15,0,0,0,9.91-3.72,12.4,12.4,0,0,0,4.44-10q0-8.18-5.35-11.64-4.41-2.82-13.77-3a1.39,1.39,0,0,0-1.43,1.37V64.8Z"/><path class="a" d="M495.52,50.9a1.41,1.41,0,0,0-1.32.89q-3.63,8.85-5.29,13.13c-1,2.54-1.83,4.81-2.51,6.82a1.41,1.41,0,0,1-1.47,1l-8-.12a1.41,1.41,0,0,1-1.52-1.31,1.37,1.37,0,0,1,.12-.69L508.86.81A1.4,1.4,0,0,1,510.13,0h7.45a1.41,1.41,0,0,1,1.28.82l32.59,70a1.41,1.41,0,0,1-.69,1.87,1.35,1.35,0,0,1-.65.13H532.55a1.43,1.43,0,0,1-1.42-.94q-2.52-6.91-3.77-10.17-2.22-5.66-4.12-9.92a1.41,1.41,0,0,0-1.3-.82Zm23.7-8.39-8.68-19.59a1.44,1.44,0,0,0-1.89-.7,1.47,1.47,0,0,0-.69.7l-9.17,19.59a1.41,1.41,0,0,0,1.29,2h17.85a1.41,1.41,0,0,0,1.43-1.39,1.42,1.42,0,0,0-.13-.61Z"/><path class="a" d="M316.47,65.09h-4.62a2.57,2.57,0,0,1-1.23-.9c-5.08-10.76-24.17-53.1-28.24-62.77a1.09,1.09,0,0,0-1.06-.66,15.77,15.77,0,0,0-1.78.19,22,22,0,0,1-2.68.22A19.64,19.64,0,0,1,274.31,1c-.7-.09-1.29-.15-1.78-.19a1.09,1.09,0,0,0-1.07.68q-4.83,11.64-9.19,21c-2.68,5.87-16.41,34.31-19.87,41.17a3.4,3.4,0,0,1-1,1h-6.52A1.42,1.42,0,0,0,233.45,66a1.5,1.5,0,0,0,0,.22l1.76,10.44a1.4,1.4,0,0,0,1.58,1.19l.33-.09c3.76-1.49,14.51-4.77,37.05-5.19,23.29-.43,35,3.57,38.88,5.23a1.42,1.42,0,0,0,1.85-.75l.06-.17,2.89-10.05a1.42,1.42,0,0,0-1-1.72A1.47,1.47,0,0,0,316.47,65.09ZM252.8,62.92c2.51-6.2,14.47-32.7,17.61-39.41a1.41,1.41,0,0,1,2.58,0c2.77,6.46,14.17,33.05,16.66,39.41a1.43,1.43,0,0,1-.83,1.83,1.64,1.64,0,0,1-.44.09h-2l-32.95-.21a1.4,1.4,0,0,1-.63-1.76Z"/><path class="b" d="M54,104.32C60.54,97.38,77.36,83.07,101.94,77a125.94,125.94,0,0,0,14.5-18c-1.15,3.58-3.27,9.17-9.75,16.91,2.22-.42,4.49-.77,6.83-1.06a70.83,70.83,0,0,1,15.54-.1,64.79,64.79,0,0,0,0-39.38S123.85,41,110.63,49.87,86.44,61,70.94,77c-6.07,6.28-13.54,18.38-16,24.54A20.59,20.59,0,0,0,54,104.32Z"/><path class="b" d="M176.93,91.57c-20.86-4.45-38.65-15.84-63-13-37,4.35-58.19,29-59.51,30.94a103.13,103.13,0,0,1,12.24-3.39c5.08-1.08,10.2-1.87,15.33-2.5s10.28-1,15.45-1.17a108.65,108.65,0,0,1,15.52.45c5.13.62,10.2,1.47,15.25,2.41s10.07,2,15.11,2.79a73.44,73.44,0,0,0,15.25,1A85.54,85.54,0,0,0,173.76,107a87.33,87.33,0,0,1-15.14,2.69,74.32,74.32,0,0,1-15.42-.49c-5.11-.63-10.16-1.53-15.23-2.28s-10.13-1.43-15.19-1.88a108.6,108.6,0,0,0-15.2,0c-5.07.33-10.13.9-15.16,1.65s-10,1.71-14.94,2.93a89.64,89.64,0,0,0-13.63,4.44v.06c7,13.75,28.32,40,76.16,32.4s78-50.82,78-50.82S197.81,96,176.93,91.57Z"/><path class="b" d="M274.87,137.83l-3.26,9H268.8a39.38,39.38,0,0,1-5.32-.33,11.54,11.54,0,0,1-3.9-1.14,4.18,4.18,0,0,1-2.06-2.16,4.94,4.94,0,0,1,.11-3.41l.76-1.95H235.61a29.24,29.24,0,0,1-5.53-.49,14,14,0,0,1-4.12-1.41,6,6,0,0,1-2.33-2.18,3.36,3.36,0,0,1-.16-2.87l6.61-17.79a6.44,6.44,0,0,1,2.15-2.82,14.93,14.93,0,0,1,4-2.22,25.51,25.51,0,0,1,5.15-1.41,33.69,33.69,0,0,1,5.85-.45H270l3.24-8.93h2.82a41,41,0,0,1,5.31.32,11.89,11.89,0,0,1,3.91,1.14,4.31,4.31,0,0,1,2.06,2.17,5.21,5.21,0,0,1-.11,3.42l-.75,1.88h22.45q6.72,0,10.25,1.79c2.34,1.19,3.09,3,2.22,5.26L314.88,131a6.58,6.58,0,0,1-2.28,3.09,14.64,14.64,0,0,1-4,2.12,25.17,25.17,0,0,1-5.26,1.25,46.37,46.37,0,0,1-6,.38Zm-14.1-6.94,1.08-3,5.43-14.53H246.46L240,130.93Zm17.68-2.39-.87,2.39H298.4l6.51-17.57H284.09Z"/><path class="b" d="M395.23,119.61q-1.32,3.57-7,5.37a47.63,47.63,0,0,1-14.15,1.78H349.47a10.59,10.59,0,0,1,1.41-2.38,10.08,10.08,0,0,1,2.5-2.33,14.63,14.63,0,0,1,3.63-1.74,15.08,15.08,0,0,1,4.72-.7h16.91l2.28-6.29H347.74l-6.83,18.88a10.37,10.37,0,0,1-6.62,6.5,22.48,22.48,0,0,1-5.36,1.14c-1.92.18-3.85.27-5.81.27H321.5l12.36-33.91H385q6.72,0,10.25,1.84t2.22,5.32Z"/><path class="b" d="M467.35,119.61Q466,123.3,460.41,125a48,48,0,0,1-14,1.73H415l-2.38,6.4h49.77a6.91,6.91,0,0,1-2.28,3.15,14.37,14.37,0,0,1-3.95,2.17,23.4,23.4,0,0,1-5.21,1.24,44.66,44.66,0,0,1-6,.38H393.61l9.76-26.9a6.33,6.33,0,0,1,2.22-2.82,16.15,16.15,0,0,1,4-2.22,27.63,27.63,0,0,1,5.21-1.47,31.3,31.3,0,0,1,5.8-.54h36.63c4.49,0,7.87.62,10.14,1.84s3,3,2.23,5.32H419.85l-2.27,6.29Z"/><path class="b" d="M482.1,140.1a36.05,36.05,0,0,1-5.59-.38,13.86,13.86,0,0,1-4.28-1.24,5.35,5.35,0,0,1-2.44-2.17,3.77,3.77,0,0,1-.06-3.15l9.87-27h1.85a53.24,53.24,0,0,1,5.64.27,14.75,14.75,0,0,1,4.33,1,4.45,4.45,0,0,1,2.39,2.17,4.77,4.77,0,0,1-.11,3.58l-7.27,20h15.29l9.87-27h2a46.5,46.5,0,0,1,5.53.33,13.83,13.83,0,0,1,4.28,1.13,4.18,4.18,0,0,1,2.22,5.81l-7.19,19.73h15.29l7.37-20.06a7.6,7.6,0,0,1,2.44-3.52,12.62,12.62,0,0,1,4-2.12,24.62,24.62,0,0,1,5.1-1q2.76-.27,5.8-.27h1.8L547.81,140.1Z"/></svg>