<svg xmlns="http://www.w3.org/2000/svg" viewBox="0 0 592.15 141.57"><defs><style>.a{fill:#007934;}.b{fill:#61a60e;}</style></defs><path class="a" d="M17.06,140.3H1.3A1.3,1.3,0,0,1,0,139H0V69.22a1.31,1.31,0,0,1,1.3-1.29H30.11q26.18,0,26.19,17.83,0,13.08-10.65,18.46-8.51,4.27-26,4.42a1.32,1.32,0,0,0-1.29,1.3V139A1.3,1.3,0,0,1,17.06,140.3Zm1.3-38.77a1.3,1.3,0,0,0,1.3,1.3h0a40.27,40.27,0,0,0,6.75-.72,13.85,13.85,0,0,0,8.45-5.4,15.64,15.64,0,0,0,2.45-9,15.23,15.23,0,0,0-3.25-10.12A10.2,10.2,0,0,0,26,73.73h-6.3A1.3,1.3,0,0,0,18.36,75Z"/><path class="a" d="M107.09,141.57q-20.57,0-32.93-9.9T61.8,104A33.47,33.47,0,0,1,74.41,77.09Q87.63,66,110,66q23.62,0,35.62,12.64a34.87,34.87,0,0,1,9.67,24.86q0,16-12.85,26.77Q129,141.57,107.09,141.57ZM82.12,107q0,11.58,5.87,19.27,6.86,9,19.71,9,13.33,0,20.68-10.22,6.62-9.27,6.61-23.49Q135,90,129.12,82q-7.11-9.59-20-9.58T89.34,80.78Q82.13,89.63,82.12,107Z"/><path class="a" d="M352,67.92h15.59a1.31,1.31,0,0,1,1.29,1.3v45.07a1.27,1.27,0,0,0,1.27,1.29,1.29,1.29,0,0,0,.88-.34q9.45-8.91,21.85-22.24,12.92-14,21.66-24.57a1.25,1.25,0,0,1,1-.46h7.32a1.29,1.29,0,0,1,1.28,1.3h0V139a1.27,1.27,0,0,1-1.27,1.29H407.26A1.28,1.28,0,0,1,406,139h0V93.55a1.28,1.28,0,0,0-1.26-1.3,1.3,1.3,0,0,0-.93.38q-9.71,9.72-21.6,22.59-13,14-22,24.63a1.29,1.29,0,0,1-1,.45H352a1.29,1.29,0,0,1-1.29-1.29h0V69.22a1.3,1.3,0,0,1,1.3-1.3Z"/><path class="a" d="M437.19,67.93h15.57A1.28,1.28,0,0,1,454,69.21h0v26a1.27,1.27,0,0,0,1.25,1.29h0c2.42,0,5.51.11,9.25.26q6.66.27,8,.27,4.23,0,6.89-.11,7.74-.32,10.37-.39a1.29,1.29,0,0,0,1.24-1.3v-26A1.28,1.28,0,0,1,492.32,68h15.56a1.28,1.28,0,0,1,1.28,1.28h0V139a1.28,1.28,0,0,1-1.26,1.3H492.31A1.28,1.28,0,0,1,491,139h0V106.25a1.3,1.3,0,0,0-1.27-1.3c-2.19,0-5.34-.09-9.43-.2l-7.8-.21q-4.23,0-9.67.15l-7.59.23a1.28,1.28,0,0,0-1.23,1.3V139a1.27,1.27,0,0,1-1.27,1.29H437.19a1.28,1.28,0,0,1-1.31-1.25V69.22a1.28,1.28,0,0,1,1.27-1.29Z"/><path class="a" d="M536.12,118.54a1.3,1.3,0,0,0-1.19.8q-3.61,8.85-5.3,13.13-1.53,3.9-2.56,7a1.27,1.27,0,0,1-1.21.87h-8.54a1.28,1.28,0,0,1-1.28-1.28,1.3,1.3,0,0,1,.12-.55l33.4-69.82a1.3,1.3,0,0,1,1.16-.72h7.58a1.27,1.27,0,0,1,1.16.73l32.59,69.82a1.28,1.28,0,0,1-.68,1.68,1.16,1.16,0,0,1-.49.1H573a1.28,1.28,0,0,1-1.21-.85q-2.55-7-3.81-10.24-2.22-5.67-4.14-9.93a1.24,1.24,0,0,0-1.16-.74Zm23.76-8.15L551,90.49a1.28,1.28,0,0,0-1.7-.63,1.25,1.25,0,0,0-.63.63l-9.33,19.9a1.28,1.28,0,0,0,.62,1.7,1.25,1.25,0,0,0,.54.12h18.17A1.28,1.28,0,0,0,560,111,1.29,1.29,0,0,0,559.88,110.39Z"/><path class="a" d="M186.74,119.12a22.22,22.22,0,0,0-.67,10.37c.49,4.54,3.53,9.37,4.84,10.43,1.15.93.5,1.51-.53,1.51h-22c-1,0-1.44-.33-.91-1.43,2-4.12,45-100.64,45-100.64S189.33,110.59,186.74,119.12Z"/><path class="a" d="M338.53,76.7c2.23-38.09-31.3-71.18-75.37-75A115.61,115.61,0,0,0,243.07,0a120.09,120.09,0,0,0-37.48,6.34A139.14,139.14,0,0,0,172.07,23a130.38,130.38,0,0,0-14.68,11.5,66,66,0,0,0-6.51,6.76,36.06,36.06,0,0,0-5.27,7.94,15,15,0,0,0-1,9.66,22.37,22.37,0,0,0,1.59,4.51,37,37,0,0,0,2.32,4.06,63.36,63.36,0,0,0,5.69,7.26c2,2.28,2.37,2,.51-.43a64.73,64.73,0,0,1-5.06-7.53,35,35,0,0,1-1.93-4,20.51,20.51,0,0,1-1.15-4.21A12.64,12.64,0,0,1,148,50.39a33.13,33.13,0,0,1,5.36-6.89A61.86,61.86,0,0,1,160,37.63a126.84,126.84,0,0,1,15-9.93c10.41-5.91,21.37-11.22,33-13.36,28.59-5.27,37.42-3.25,39.52-3.13C286.79,13.5,317.11,42.09,315.17,75a50.8,50.8,0,0,1-1.56,9.8l23.07,3.59A61.62,61.62,0,0,0,338.53,76.7Z"/><path class="b" d="M195.88,99.75c6.22-6.64,22.32-20.35,45.85-26.12A119.4,119.4,0,0,0,255.6,56.44c-1.09,3.42-3.12,8.78-9.32,16.19q3.18-.61,6.53-1a67.82,67.82,0,0,1,14.87-.1,62,62,0,0,0,0-37.67s-5,5.26-17.64,13.81-23.15,10.63-38,26c-5.81,6-13,17.59-15.35,23.49A16.89,16.89,0,0,0,195.88,99.75Z"/><path class="b" d="M313.55,87.55c-20-4.26-37-15.17-60.29-12.42-35.38,4.17-55.7,27.78-57,29.62A99.2,99.2,0,0,1,208,101.51c4.86-1,9.76-1.81,14.67-2.39s9.84-1,14.79-1.13a105.33,105.33,0,0,1,14.86.43c4.91.61,9.76,1.41,14.6,2.31s9.63,1.91,14.46,2.67a70.65,70.65,0,0,0,14.59,1,82.76,82.76,0,0,0,14.52-2.08A82.71,82.71,0,0,1,296,104.9a72.13,72.13,0,0,1-14.76-.47c-4.89-.6-9.73-1.46-14.57-2.19s-9.7-1.36-14.55-1.8a103.76,103.76,0,0,0-14.54,0c-4.86.32-9.71.86-14.52,1.58s-9.59,1.63-14.29,2.8a88.51,88.51,0,0,0-13,4.24v.07c6.75,13.16,27.11,38.26,72.89,31s74.68-48.6,74.68-48.6S333.53,91.8,313.55,87.55Z"/></svg>