<svg xmlns="http://www.w3.org/2000/svg" viewBox="0 0 502.11 144.56"><defs><style>.a{fill:#61a60e;}.b{fill:#007934;}</style></defs><path class="a" d="M387.93,62.73a77.42,77.42,0,0,1,31.92-27.54,95.69,95.69,0,0,0,8.21-15.62,36.18,36.18,0,0,1-4.8,14.12c1.61-.65,3.25-1.27,5-1.8a52.9,52.9,0,0,1,11.63-2.37A49.48,49.48,0,0,0,434,0s-3.09,4.89-11.69,13.55-16.49,11.9-25.74,26.22a75,75,0,0,0-8.36,20.78A12.15,12.15,0,0,0,387.93,62.73Z"/><path class="a" d="M478.19,35c-16.31-.24-31.32-6.15-49.15-.4C402,43.32,389.69,65,389,66.58a79.84,79.84,0,0,1,8.68-4.34c3.64-1.57,7.36-2.93,11.12-4.15s7.56-2.27,11.41-3.16a84.3,84.3,0,0,1,11.7-2c3.95-.28,7.87-.39,11.8-.45s7.84,0,11.74-.14A57.22,57.22,0,0,0,467,50.87,66.25,66.25,0,0,0,478.08,47a67.06,67.06,0,0,1-10.95,4.25A56.59,56.59,0,0,1,455.5,53.2c-3.94.3-7.85.36-11.76.55s-7.8.42-11.67.83a83.22,83.22,0,0,0-11.39,2.29c-3.75,1-7.47,2.17-11.12,3.48s-7.27,2.76-10.77,4.41a68.81,68.81,0,0,0-9.56,5.34h0c7.33,9.27,27.16,25.77,61.9,13s51-49.62,51-49.62S494.49,35.23,478.19,35Z"/><path class="b" d="M197.27,59.41q-1.67,4.59-8.94,6.89a61.27,61.27,0,0,1-18.16,2.3H138.55a13.66,13.66,0,0,1,1.8-3.06,13.34,13.34,0,0,1,3.2-3,19.2,19.2,0,0,1,10.71-3.13H176l2.92-8.06H136.31l-8.76,24.25A13.38,13.38,0,0,1,119.06,84a29.08,29.08,0,0,1-6.89,1.46q-3.69.34-7.45.35h-2.09L118.5,42.13h65.69q8.63,0,13.15,2.37c3,1.57,4,3.83,2.85,6.81Z"/><path class="b" d="M260.59,63.58l-42.19,22H197.27l15.87-43.42h2q8.74,0,13.15,2.37c2.92,1.57,3.83,3.83,2.71,6.81l-5.57,15.33,37.7-19.76a27.92,27.92,0,0,1,6.2-2.55,60.43,60.43,0,0,1,6.38-1.39c2-.32,3.95-.52,5.71-.63h8.35L273.81,85.55h-2.36a36.85,36.85,0,0,1-7-.63,17.63,17.63,0,0,1-5.24-1.77,7.52,7.52,0,0,1-3-2.86,4.5,4.5,0,0,1-.22-3.76Z"/><path class="b" d="M372,76.67a8.74,8.74,0,0,1-3,4A20,20,0,0,1,364,83.49a33.48,33.48,0,0,1-6.75,1.67,51.74,51.74,0,0,1-7.66.55h-2l6.27-17.11H311.07l-6.26,17.11h-2.36a36,36,0,0,1-7-.62,17.53,17.53,0,0,1-5.3-1.82,7.34,7.34,0,0,1-3-2.83,4.53,4.53,0,0,1-.2-3.76l9.28-25.61a7.9,7.9,0,0,1,2.78-3.55,21.29,21.29,0,0,1,5.11-2.78,36,36,0,0,1,6.68-1.88,41.91,41.91,0,0,1,7.58-.69h2.22L314.4,59.56h42.86l6.28-17.43h1.8q8.78,0,13.15,2.37t2.72,6.81Z"/><path class="b" d="M168.28,122.4l-42.16,22H105L120.85,101h2q8.78,0,13.15,2.36t2.72,6.82l-5.56,15.32,37.71-19.76a27.08,27.08,0,0,1,6.2-2.55,59.39,59.39,0,0,1,6.32-1.4c2-.32,3.94-.52,5.7-.62h8.35l-15.88,43.24h-2.36a36.14,36.14,0,0,1-7-.62,18,18,0,0,1-5.29-1.8,7.48,7.48,0,0,1-3-2.86,4.53,4.53,0,0,1-.2-3.76Z"/><path class="b" d="M243.54,121.38l30,23.1H257.47a41.4,41.4,0,0,1-6.39-.41,24,24,0,0,1-4.25-1,16.57,16.57,0,0,1-3-1.39c-.84-.51-1.67-1-2.55-1.47l-21-15.66-4.18,11.68a8.33,8.33,0,0,1-3,4,17.66,17.66,0,0,1-5.21,2.55,36.66,36.66,0,0,1-6.62,1.42,67.28,67.28,0,0,1-7.37.41H192L207.77,101h21.15L222,120.1,256.44,101h23.38Z"/><path class="b" d="M372.53,110.16a6.49,6.49,0,0,1-3.47,3.69,36.67,36.67,0,0,1-4.74,2,35.83,35.83,0,0,1-6.89,1.87,44.25,44.25,0,0,1-7.45.63H348l3.07-8.21H308.37l-9.32,25.47h42.86l.57-1.28c.63-1.86,3.06-3.57,7.22-5.1a35.91,35.91,0,0,1,7-1.88,46.25,46.25,0,0,1,7.79-.63h1.81l-3.2,8.63a9.19,9.19,0,0,1-3,4.1,18.31,18.31,0,0,1-5.1,2.86,34.19,34.19,0,0,1-6.75,1.68,52.93,52.93,0,0,1-7.66.55H293.48a36.82,36.82,0,0,1-7-.63,17.36,17.36,0,0,1-5.29-1.81,7.51,7.51,0,0,1-3-2.86,4.57,4.57,0,0,1-.2-3.76l9.32-25.61a7.9,7.9,0,0,1,2.78-3.55,21.29,21.29,0,0,1,5.11-2.78,35.94,35.94,0,0,1,6.67-1.88,42,42,0,0,1,7.59-.69h46.91c5.85,0,10.21.78,13.29,2.36S373.65,107.18,372.53,110.16Z"/><path class="b" d="M117.71,32.83A19.52,19.52,0,0,1,115,37.47a12.22,12.22,0,0,1-4.86,3.83,34.28,34.28,0,0,1-7.17,2A63.11,63.11,0,0,1,92.4,44H57.09L46.27,73.36a17.09,17.09,0,0,1-9.18,10.16,26.3,26.3,0,0,1-7,1.77,66.66,66.66,0,0,1-7.47.42h-2.1L35.93,44a15,15,0,0,1,4.29-6.5,17.43,17.43,0,0,1,6-3.29A27.16,27.16,0,0,1,52.91,33c2.29-.11,4.35-.16,6.21-.16Z"/><path class="b" d="M45.44,129.67,33.17,112.09l-7.9,21.46a14.59,14.59,0,0,1-8.66,8.36A38.61,38.61,0,0,1,2,144.47H0L19.56,91.58h4c1.11,0,2.55,0,4.23.08a30.78,30.78,0,0,1,5.25.67A28.2,28.2,0,0,1,38.25,94a10,10,0,0,1,4,3.13L57,116.27l6.71-4.39.73,7.43Zm4.3,6.08-4.3-6.08,19-10.32.71,5.75ZM85.56,97.22a26.59,26.59,0,0,1,6.38-3.12,49.78,49.78,0,0,1,6.45-1.7,39.71,39.71,0,0,1,5.76-.68c1.76,0,3.2-.08,4.31-.08h3.9l-.5,1.18-.34,1L64.36,119.38,63.64,112Zm26-3.38-18.7,50.69h-2a34.68,34.68,0,0,1-7.26-.68,16.34,16.34,0,0,1-5.35-2,6.46,6.46,0,0,1-2.82-3.38,7.34,7.34,0,0,1,.33-4.91l7.9-21.46-18.58,13-.71-5.75Z"/></svg>