<?xml version="1.0" encoding="utf-8"?>
<!-- Generator: Adobe Illustrator 19.1.1, SVG Export Plug-In . SVG Version: 6.00 Build 0)  -->
<svg version="1.1" id="Слой_1" xmlns="http://www.w3.org/2000/svg" xmlns:xlink="http://www.w3.org/1999/xlink" x="0px" y="0px"
	 viewBox="0 0 1024 202.7" style="enable-background:new 0 0 1024 202.7;" xml:space="preserve">
<style type="text/css">
	.st0{clip-path:url(#SVGID_2_);}
	.st1{opacity:0.3;clip-path:url(#SVGID_4_);}
	.st2{clip-path:url(#SVGID_6_);fill:#94BB1E;}
	.st3{clip-path:url(#SVGID_4_);fill:#94BB1E;}
	.st4{clip-path:url(#SVGID_4_);fill:#004819;}
	.st5{clip-path:url(#SVGID_4_);fill:#41884C;}
	.st6{clip-path:url(#SVGID_4_);fill:#B5D054;}
</style>
<g>
	<defs>
		<rect id="SVGID_1_" x="0" y="0" width="1024" height="202.7"/>
	</defs>
	<clipPath id="SVGID_2_">
		<use xlink:href="#SVGID_1_"  style="overflow:visible;"/>
	</clipPath>
	<g class="st0">
		<defs>
			<rect id="SVGID_3_" x="0" y="0" width="1024" height="202.7"/>
		</defs>
		<clipPath id="SVGID_4_">
			<use xlink:href="#SVGID_3_"  style="overflow:visible;"/>
		</clipPath>
		<g class="st1">
			<g>
				<defs>
					<rect id="SVGID_5_" x="748.4" y="-27.3" width="371.2" height="188"/>
				</defs>
				<clipPath id="SVGID_6_">
					<use xlink:href="#SVGID_5_"  style="overflow:visible;"/>
				</clipPath>
				<path class="st2" d="M941.9,133.2c-1.6,0-2.7,0.7-3.6,1.5l-2.6,2.6c-0.2,0.2-0.4,0.4-0.4,0.7c0,0.3,0.2,0.5,0.4,0.7l2.6,2.6
					c0.9,0.9,2,1.5,3.6,1.5c2.7,0,4.7-2.1,4.7-4.8C946.6,135.3,944.6,133.2,941.9,133.2 M941.9,135.2c1.5,0,2.7,1.2,2.7,2.8
					c0,1.6-1.2,2.8-2.7,2.8c-0.9,0-1.5-0.3-2.2-1l-1.9-1.9l1.9-1.9C940.4,135.4,941,135.2,941.9,135.2"/>
				<path class="st2" d="M926.1,133.2c-2.6,0-4.7,2.1-4.7,4.8c0,2.7,2,4.8,4.7,4.8c1.6,0,2.7-0.7,3.6-1.5l2.6-2.6
					c0.2-0.2,0.4-0.4,0.4-0.7c0-0.3-0.1-0.5-0.4-0.7l-2.6-2.6C928.8,133.8,927.7,133.2,926.1,133.2 M926.1,135.2
					c0.9,0,1.5,0.3,2.2,1l1.9,1.9l-1.9,1.9c-0.7,0.7-1.3,1-2.2,1c-1.5,0-2.7-1.3-2.7-2.8C923.4,136.4,924.6,135.2,926.1,135.2"/>
				<path class="st2" d="M934,139.3c-0.3,0-0.5,0.2-0.7,0.4l-2.6,2.6c-0.9,0.9-1.5,2-1.5,3.6c0,2.6,2.1,4.7,4.8,4.7
					c2.7,0,4.8-2,4.8-4.7c0-1.6-0.7-2.7-1.5-3.6l-2.6-2.6C934.5,139.5,934.3,139.3,934,139.3 M934,141.8l1.9,1.9
					c0.7,0.7,1,1.3,1,2.2c0,1.5-1.2,2.7-2.8,2.7c-1.6,0-2.8-1.2-2.8-2.7c0-0.9,0.3-1.5,0.9-2.2L934,141.8z"/>
				<path class="st2" d="M934,125.4c-2.7,0-4.8,2-4.8,4.7c0,1.6,0.7,2.7,1.5,3.6l2.6,2.6c0.2,0.2,0.4,0.4,0.7,0.4
					c0.3,0,0.5-0.2,0.7-0.4l2.6-2.6c0.9-0.9,1.5-2,1.5-3.6C938.8,127.4,936.7,125.4,934,125.4 M934,127.4c1.6,0,2.8,1.2,2.8,2.7
					c0,0.9-0.3,1.5-0.9,2.2l-1.9,1.9l-1.9-1.9c-0.7-0.7-1-1.3-1-2.2C931.2,128.6,932.4,127.4,934,127.4"/>
			</g>
		</g>
		<path class="st3" d="M997.3,164v5h10.5v33.1h5.6V169h10.5v-5H997.3z M976.5,184.6h15v-4.8h-15V169h18.8v-5h-24.5v38.1h25v-5h-19.4
			V184.6z M963.9,197.6c-1.2,0-1.5-0.7-2-1.9c-1.7-4.7-1.6-6.9-2.8-9.6c-0.5-1.2-1.8-3.4-4.5-4.3c1.9-0.9,2.9-2.6,3.4-4.2
			c1-2.8,1.3-7,2.4-8.3c0.4-0.5,1.2-1,1.7-1c0.2,0,0.4,0,1.1,0.1l0.6,0.1v-4.6l-0.4-0.1c-0.4-0.1-1.1-0.2-1.9-0.2
			c-1.8,0-4.6,0.6-6.1,4c-1.3,2.9-1.5,7.5-3,9.9c-1.3,2.1-3.3,2.5-5.4,2.5h-4.7V164h-5.6v38.1h5.6v-17.5h4.6c2.5,0,5,0.1,6.5,2.7
			c0.6,1,0.9,2.5,1.6,5.1c0.6,2.7,1.2,5.1,2.2,7c1.4,2.5,3.4,3.3,5.3,3.3h0.1c1.1,0,1.8-0.2,2.6-0.6l0.2-0.1v-4.6l-0.7,0.2
			C964.6,197.6,964.3,197.6,963.9,197.6 M925.8,180.3c-1.8,1.7-4.4,1.7-6.1,1.7h-6.7v-13h7.2c1.7,0,4.1,0.2,5.7,1.6
			c0.8,0.6,2,2,2,4.6C927.8,177.5,926.9,179.3,925.8,180.3 M929.7,166.5c-3-2.2-6.6-2.5-9.6-2.5h-12.8v38.1h5.7v-15.1h7.3
			c0.1,0,0.2,0,0.3,0c2.5,0,6.4,0,9.7-3c1.2-1,3.6-3.8,3.6-8.7C933.8,170.6,931.6,167.9,929.7,166.5 M882.7,186.6l4.9-15.4l4.8,15.4
			H882.7z M891.1,164H885l-12.3,38.1h5.3l3.3-10.8h12.6l3.5,10.8h6.2l-0.2-0.7L891.1,164z M850,192.9L839.2,164h-7.7v38.1h4.9v-30.3
			l11.4,30.3h3.8l11.2-30.4v30.4h5.6V164h-7.7L850,192.9z M818.4,180.3c-1.9,1.7-4.5,1.7-6.2,1.7h-6.7v-13h7.1
			c1.7,0,4.2,0.2,5.8,1.6c0.8,0.6,2,2,2,4.6C820.4,177.5,819.5,179.3,818.4,180.3 M822.2,166.5c-2.9-2.2-6.6-2.5-9.6-2.5h-12.8v38.1
			h5.7v-15.1h7.3c0.1,0,0.2,0,0.2,0c2.6,0,6.4,0,9.7-3c1.2-1,3.6-3.8,3.6-8.7C826.4,170.6,824.2,167.9,822.2,166.5 M774.8,184.6
			h14.9v-4.8h-14.9V169h18.8v-5h-24.5v38.1h25v-5h-19.4V184.6z M733.6,202.1h5.7V169H755v33.1h5.7V164h-27.1V202.1z M716.3,185.6
			L706.1,164h-6l13.3,28c-0.4,1.3-1.2,3.2-2.3,4.2c-0.8,0.7-2.1,1.4-3.9,1.4c-0.7,0-1.2-0.1-1.9-0.4l-0.7-0.3v5l0.3,0.1
			c0.6,0.2,1.5,0.4,2.6,0.4h0c2.1,0,4.5-0.8,6.3-2.4c2.5-2.2,3.6-5.3,4.6-8L730,164h-5.2L716.3,185.6z M694.1,189
			c-0.6,3.2-2.3,5.2-2.9,6c-1.7,1.7-3.2,2.6-5.8,2.6c-4.3,0-6.8-2.7-8.2-5.6c-1.2-2.6-1.7-6.2-1.7-9.4c0-2.6,0.3-6.6,2-9.5
			c2.1-3.7,4.9-4.7,7.8-4.7c3,0,5,1,6.7,3.6c1,1.6,1.6,3.3,1.9,4.6l0.1,0.5l0.5-0.1l4.9-0.9l-0.1-0.5c-0.5-3.6-2.2-6.8-4.4-8.8
			c-3.1-2.9-6.4-3.5-9.5-3.5c-2.5,0-7.6,0.4-11.6,5.1c-1.2,1.4-4.4,5.7-4.3,13.9c0,4.9,1.2,9.9,3.6,13.6c3.8,5.8,8.9,6.6,12.3,6.6
			h0.1c2.8,0,6.2-0.5,9.4-4c2.2-2.3,3.7-5.4,4.3-8.5l0.1-0.5l-5.2-1.1L694.1,189z"/>
		<path class="st4" d="M155.1,58.9c-12.2,0-20.4,5-27.1,11.6l-24.1,24.8l24.1,24.8c6.7,6.6,14.9,11.6,27.1,11.6
			c20.1,0,35.5-16.3,35.5-36.4S175.3,58.9,155.1,58.9 M155.1,74.5c11.1,0,19.9,9.2,19.9,20.8c0,11.7-8.7,20.8-19.9,20.8
			c-6.4,0-11-2-16.1-7.1l-13.9-13.8l13.8-13.7C144.1,76.5,148.7,74.5,155.1,74.5"/>
		<path class="st3" d="M35.5,58.9C15.3,58.9,0,75.2,0,95.3s15.3,36.4,35.4,36.4c12.2,0,20.4-5,27.1-11.6l24.1-24.8L62.6,70.5
			C55.9,63.9,47.6,58.9,35.5,58.9 M35.5,74.5c6.4,0,11,2,16.2,7.1l13.9,13.8L51.7,109c-5.2,5.2-9.8,7.1-16.2,7.1
			c-11.1,0-19.9-9.1-19.9-20.8C15.6,83.6,24.3,74.5,35.5,74.5"/>
		<path class="st5" d="M95.3,103.9c-2.1,0-24.8,24.1-24.8,24.1c-6.6,6.7-11.6,14.9-11.6,27.1c0,20.1,16.3,35.4,36.4,35.4
			c20.1,0,36.4-15.3,36.4-35.4c0-12.2-5-20.4-11.6-27.1L95.3,103.9z M95.3,125.1l13.7,13.8c5.1,5.3,7.1,9.8,7.1,16.2
			c0,11.3-9,19.9-20.8,19.9c-11.9,0-20.8-8.5-20.8-19.9c0-6.4,2-11,7-16.2L95.3,125.1z"/>
		<path class="st6" d="M95.3,0C75.2,0,58.9,15.3,58.9,35.4c0,12.2,5,20.4,11.6,27.1l24.8,24.1l24.8-24.1
			c6.6-6.7,11.6-14.9,11.6-27.1C131.7,15.3,115.4,0,95.3,0 M95.3,15.6c11.7,0,20.8,8.7,20.8,19.9c0,6.4-2,11-7.1,16.2L95.3,65.5
			L81.6,51.7c-5.1-5.2-7.1-9.8-7.1-16.2C74.5,24.1,83.4,15.6,95.3,15.6"/>
		<path class="st4" d="M400.9,125.4c-7.7,0-12.5-6.1-12.5-16.3V93.3c0-8.7,4.9-15.2,12.5-15.2c8.2,0,13.3,6.7,13.3,23.4
			C414.2,113.8,411.5,125.4,400.9,125.4 M411.3,63.9c-1.3-0.2-2.5-0.3-3.7-0.3c-7.5,0.4-14.3,2.9-19.3,5.9v-2.3
			c0-0.9,0.4-2.6-1.8-2.6h-12.3c-3.5,0.3-6.2,2.8-6.3,5.9v13h0v63.8c0,11.1,7.9,18,17.6,18h0.8c1,0,2-0.4,2-2.2v-27.7
			c4.2,2.5,9.5,4.5,16.6,4.6c2.6,0,4.9-0.2,7.1-0.6c12.8-1.9,24.4-13.4,24.4-38.4C436.5,80.3,427.7,65.1,411.3,63.9"/>
		<path class="st4" d="M919.5,119.2c-2.7,4.7-6.7,6.2-10.6,6.2c-3.9,0-7.9-1.5-10.6-6.2c-1.7-3-3.3-7.8-3.3-17.7
			c0-5.4,0.3-12.5,3.7-17.8c2.4-3.9,5.6-5.7,10.2-5.7c4.6,0,7.7,1.8,10.2,5.7c3.4,5.3,3.8,12.3,3.8,17.8
			C922.8,111.4,921.2,116.1,919.5,119.2 M908.9,63.7c-7.2,0-16.9,1.7-25.4,10c-3.5,3.4-10.9,12.5-10.9,27.8
			c0,11.8,4.6,22.3,11.4,28.8c5,4.7,13.2,9.3,24.8,9.3c11.6,0,19.8-4.6,24.8-9.3c6.9-6.6,11.5-17.1,11.5-28.8
			c0-15.3-7.5-24.4-10.9-27.8C925.8,65.4,916,63.7,908.9,63.7"/>
		<path class="st4" d="M782.7,78c4,0,7.3,2.1,9.2,4.7c0.8,1.1,1.4,2.7,1.9,4.5c0.6,1.7,1.7,2.9,3.5,2.9h15c0.8,0,1.4-0.7,1.3-1.5
			c-1.3-6.6-4.5-13.1-9.2-17.4c-5.4-5-13.6-7.6-21.9-7.6c-9.3,0-17.6,3.6-23.2,8.6c-5.6,5-11.6,14.5-11.6,29.5
			c0,12.5,4.3,22.8,10.7,29c3.8,3.6,11.3,8.9,23.7,8.9c11.1,0,18.1-4.2,22.1-7.6c4.4-3.9,7.8-9.7,9.4-16.3c0.1-0.5,0-1.4-1.2-1.4
			h-15.5c-1.8,0.1-2.6,1.1-3.2,2.7c0,0-0.1,0.2-0.2,0.5c0,0.1,0,0.1-0.1,0.2c0,0.1-0.1,0.2-0.1,0.3l0,0c-0.4,0.9-0.8,1.7-1.4,2.5
			c-2.5,3.9-5.1,4.8-8.8,4.8c-3.5,0-6.9-0.9-9.8-5.8c-2-3.4-3.1-8.4-3.1-17.9c0-11.3,1.7-15.7,3-17.9C775.1,80.3,778.7,78,782.7,78"
			/>
		<path class="st4" d="M310.7,93.8c0-4.4,1.6-8.6,4-11.2c2.6-2.7,6.5-4.6,10.9-4.6c5.6,0,8.9,2.7,10.9,5.5c2,2.9,3,6.9,2.9,10.3
			H310.7z M325.3,63.7c-6.5,0-15.6,1-24.1,8.2c-5.7,4.9-12.9,13.9-12.9,30c0,13.8,5.4,22.6,10.5,27.7c5.4,5.4,14.3,10.2,26.4,10.2
			c9.8,0,17.7-2.6,23.4-6.6c4-2.8,8.9-7.6,11.5-15.4c0.2-0.6,0.5-1.9-1.1-1.9h-17.2c-1,0-2.1,1.2-2.4,1.7c-0.6,1.4-1.5,2.7-2.4,3.7
			c-2,2-5.4,4.2-10.7,4.2c-6.9,0-10.9-3.6-13.1-7.7c-1.7-3.2-2.6-7.6-2.4-11.6h47.9c1.9-0.3,2.6-1.4,2.7-4c0,0,0-0.3,0-0.6
			c-0.2-11.9-4.1-20.4-8.4-25.5C348,70,339.2,63.7,325.3,63.7"/>
		<path class="st4" d="M580,114.4c-4.6-9.5-8.7-15.2-12.6-15.7c0,0,5.2-0.3,8.7-9.9c1.2-3.4,4.6-11.2,6.9-16
			c0.8-1.8,2.2-3.7,3.7-5.5c0.2-0.2,0.3-0.6,0.3-0.9c0-0.8-0.7-1.5-1.5-1.6h-15c-4.1,0.1-6.1,3.3-7.4,6.5c-2.2,5.1-3.1,8.3-6.3,15.4
			c-1.5,3.4-4.3,7-10.4,7H542V67.3c0-0.9,0.4-2.6-1.8-2.6h-13.3c-3.5,0.3-6.3,2.9-6.3,6v56.2c0,1.6,0.1,3.8,0.8,5.9
			c1.5,3.2,4.4,5.9,8.1,5.9h9.4c2.4,0,3.1-1.3,3.1-3.1V106h3.8c8.2,0,11.8,9.4,15.3,16c3.2,6.1,8.8,16.9,18.7,16.4h11.8
			c0.8-0.1,1.4-0.7,1.4-1.5c0-0.3-0.1-0.5-0.2-0.8C590,131.6,583.8,121.5,580,114.4"/>
		<path class="st4" d="M275.3,44.2h-58.8c-3.7,0-7.1,3.1-7.1,7.3c0,0,0,67.6,0,67.9c0,2.6,0.3,5.7,1.6,8.8c2.7,5.8,8.3,10,15,10.8
			h2.7c1.9,0,2.2-0.9,2.2-3V66.8c0.3-1.3,1.5-2.4,2.9-2.4h24.1c1.4,0,2.6,1.1,2.9,2.4c0,0-0.1,51.5,0,52.5c0,2.6,0.2,5.7,1.5,8.8
			c2.7,5.8,8.3,10,15,10.8h2.7c1.9,0,2.2-0.9,2.2-3V51.4C282.3,48,279.3,44.2,275.3,44.2"/>
		<path class="st4" d="M879.9,66.2c0.2-0.7,0.1-1.6-1.3-1.6h-68.8c-1.5,0-1.6,0.9-1.4,1.6c2.1,7,7.3,13.6,14.7,14h7.5
			c1.6,0.2,2.9,1.5,2.9,3.2v37.8c0,2.7,0.4,4.5,1.5,7c2.7,5.8,8.3,10,14.9,10.7h2.7c1.9,0,2.2-0.9,2.2-3V83.4c0-1.6,1.3-3,2.9-3.2
			h7.5C872.6,79.9,877.8,73.3,879.9,66.2"/>
		<path class="st4" d="M1023.1,136.2c-2.8-4.5-9-14.7-12.8-21.8c-4.6-9.5-8.7-15.2-12.6-15.8c0,0,5.2-0.3,8.7-9.9
			c1.2-3.3,4.6-11.2,6.9-16c0.8-1.8,2.2-3.7,3.7-5.5c0.2-0.2,0.3-0.6,0.3-0.9c0-0.8-0.6-1.5-1.5-1.6h-15c-4.1,0.1-6.1,3.3-7.4,6.5
			c-2.2,5.1-3.1,8.3-6.3,15.4c-1.5,3.4-4.3,7-10.4,7h-4.3V67.3c0-0.9,0.4-2.6-1.8-2.6h-13.3c-3.5,0.3-6.2,2.9-6.3,6v56.2
			c0,1.6,0.1,3.8,0.8,5.9c1.5,3.2,4.4,5.9,8.2,5.9h9.4c2.4,0,3.1-1.3,3.1-3.1V106h3.8c8.2,0,11.8,9.4,15.3,16
			c3.2,6.1,8.8,16.9,18.7,16.4h11.8c0.8-0.1,1.4-0.7,1.4-1.5C1023.3,136.6,1023.2,136.4,1023.1,136.2"/>
		<path class="st4" d="M628.5,125.4c-7.7,0-12.5-6.1-12.5-16.3V93.3c0-8.7,4.9-15.2,12.5-15.2c8.2,0,13.3,6.7,13.3,23.4
			C641.9,113.8,639.2,125.4,628.5,125.4 M639,63.9c-1.3-0.2-2.5-0.3-3.7-0.3c-7.6,0.4-14.3,2.9-19.4,5.9v-2.3c0-0.9,0.4-2.6-1.8-2.6
			h-12.3c-3.5,0.3-6.2,2.8-6.3,5.9v13h0v63.8c0,11.1,7.9,18,17.6,18h0.8c1,0,2.1-0.4,2.1-2.2v-27.7c4.2,2.5,9.5,4.5,16.6,4.6
			c2.5,0,4.9-0.2,7.1-0.6c12.8-1.9,24.5-13.4,24.5-38.4C664.2,80.3,655.5,65.1,639,63.9"/>
		<path class="st4" d="M692,93.8c0-4.4,1.6-8.6,4-11.2c2.6-2.7,6.4-4.6,10.9-4.6c5.6,0,8.9,2.7,10.9,5.5c2,2.9,3,6.9,2.9,10.3H692z
			 M706.6,63.7c-6.5,0-15.6,1-24.1,8.2c-5.7,4.9-12.9,13.9-12.9,30c0,13.8,5.4,22.6,10.4,27.7c5.5,5.4,14.3,10.2,26.4,10.2
			c9.7,0,17.6-2.6,23.4-6.6c4-2.8,8.8-7.6,11.5-15.4c0.2-0.6,0.5-1.9-1.1-1.9H723c-1,0-2.1,1.2-2.3,1.7c-0.6,1.4-1.5,2.7-2.5,3.7
			c-2,2-5.4,4.2-10.7,4.2c-6.9,0-10.9-3.6-13-7.7c-1.7-3.2-2.6-7.6-2.4-11.6h47.9c1.9-0.3,2.6-1.4,2.7-4v-0.6
			c-0.2-11.9-4.1-20.4-8.5-25.5C729.3,70,720.5,63.7,706.6,63.7"/>
		<path class="st4" d="M489.9,64.9l-34.3,0l-11.1,0c0,13.3,13,17.8,22.6,17.8l30.9,0l14.5,0C512.5,69.4,499.5,64.9,489.9,64.9"/>
		<path class="st4" d="M489.9,93.1l-34.3,0l-11.1,0c0,13.3,13,17.8,22.6,17.8l30.9,0l14.5,0C512.5,97.7,499.5,93.1,489.9,93.1"/>
		<path class="st4" d="M489.9,121.3l-34.3,0l-11.1,0c0,13.2,13,17.8,22.6,17.8l30.9,0l14.5,0C512.5,125.9,499.5,121.3,489.9,121.3"
			/>
	</g>
</g>
</svg>
