<svg xmlns="http://www.w3.org/2000/svg" viewBox="0 0 1119.93 324.54"><defs><style>.a{fill:#ff6a00;}.b{fill:#fff;}.c{fill:#74af0d;}.d{fill:#94cc00;}</style></defs><path class="a" d="M324.33,162.62c0,29-8,57-22,82,0,0-57,20-139.93,20-84,0-139.93-20-139.93-20-13-22-20-46-22-71a152.21,152.21,0,0,1,12-73,151,151,0,0,1,43-60c19-17,41-29,65-35,24-7,49-7,74-3,25,5,48,15,67,30a161.58,161.58,0,0,1,47,57c10,23,16,48,16,73Z"/><path class="b" d="M234.38,180.61a3.54,3.54,0,0,0-4-4h-9V66.67a3.54,3.54,0,0,0-4-4h-89a12.66,12.66,0,0,0-6,1c-2,0-3,1-4,3s-2,4-2,5v25c0,5,0,28-1,33a59,59,0,0,1-2,14,73.57,73.57,0,0,1-4,14,33.76,33.76,0,0,1-6,12,43.83,43.83,0,0,1-6,7,5.2,5.2,0,0,1-4,2c-1,0-2,1-3,1a8.45,8.45,0,0,0-2,6v40a3.54,3.54,0,0,0,4,4h26a3.54,3.54,0,0,0,4-4v-18h75v18a3.54,3.54,0,0,0,4,4h27a3.54,3.54,0,0,0,4-4l2-45Zm-49-5h-50a37.77,37.77,0,0,0,6-13c2-5,3-11,4-16,1-6,2-11,2-16s1-28,1-32v-8h37Z"/><path class="c" d="M28.49,255.57c15,21,35,39,58,51a165.17,165.17,0,0,0,149.92,0,157.77,157.77,0,0,0,58-51s-66,23-132.93,23-132.93-23-132.93-23Z"/><path class="d" d="M161.42,278.56c67,0,132.93-23,132.93-23s-56,45-133.93,45-131.93-45-131.93-45S94.45,278.56,161.42,278.56Z"/><path class="a" d="M470.26,198.6h-56c3-5,6-10,7-15a116.15,116.15,0,0,0,4-18,110.19,110.19,0,0,0,2-18c0-6,1-32,1-36v-9h41Zm49,0h-10V73.67c0-1-1-1-1-2a3.49,3.49,0,0,0-2-1H405.29a19.47,19.47,0,0,0-7,1c-2,0-3,1-5,3a8.45,8.45,0,0,0-2,6v27c0,5,0,31-1,36s-1,11-2,16a83,83,0,0,1-4,15c-2,5-4,9-6,13-2,3-4,6-7,8a5.2,5.2,0,0,1-4,2c-1,0-3,1-4,1a8.5,8.5,0,0,0-2,6v44h0c0,1,1,3,1,4,1,1,2,1,4,1h29c1,0,3-1,4-1,1-1,1-2,1-4v-20h82.95v20h0c0,1,1,3,1,4,1,1,2,1,4,1h30c1,0,3-1,4-1,1-1,1-2,1-4h0v-47h0c0-1-1-3-1-4-1,2-2,1-3,1"/><path class="a" d="M784.1,139.63l51-58c1-1,1-2,2-3v-3c0-1-1-2-2-3a3.66,3.66,0,0,0-3-1h-32a3.67,3.67,0,0,0-3,1,2.15,2.15,0,0,0-2,2l-54,63v-59a5.2,5.2,0,0,0-2-4,7.63,7.63,0,0,0-4-2h-26a5.22,5.22,0,0,0-4,2,7.58,7.58,0,0,0-2,4V228.59a5.17,5.17,0,0,0,2,4,7.58,7.58,0,0,0,4,2h26a5.2,5.2,0,0,0,4-2,7.55,7.55,0,0,0,2-4v-42l17-19,39,64c1,1,1,2,2,2a3.67,3.67,0,0,0,3,1h30a3.66,3.66,0,0,0,3-1c1-1,2-1,2-2s1-2,1-3a3.67,3.67,0,0,0-1-3Z"/><path class="a" d="M962,190.61a5,5,0,0,0-6,0c-13,7-27,10-42,10-27,0-47-20-47-48s20-48,48-48a81.87,81.87,0,0,1,40,10c1,0,2,1,3,1a3.67,3.67,0,0,0,3-1c1-1,2-1,2-2a3.67,3.67,0,0,0,1-3v-25a3.67,3.67,0,0,0-1-3c-1-1-1-2-2-2-5-3-22-11-47-11-49,0-85.95,36-85.95,84s37,84,84.95,84c28,0,47-10,49-11,1-1,2-1,2-2a3.67,3.67,0,0,0,1-3v-24a3.67,3.67,0,0,0-1-3c-1-1-1-2-2-3"/><path class="a" d="M551.22,71.67h26a5.19,5.19,0,0,1,4,2,7.52,7.52,0,0,1,2,4v80l85-86.95c1-1,1-1,2-1h3a5.17,5.17,0,0,1,4,2,7.55,7.55,0,0,1,2,4V228.59a5.17,5.17,0,0,1-2,4,7.55,7.55,0,0,1-4,2h-26a5.2,5.2,0,0,1-4-2,7.55,7.55,0,0,1-2-4v-80l-84.95,87c-1,0-1,0-2,1h-3a5.2,5.2,0,0,1-4-2c-2-1-2-2-2-4V77.66a5.16,5.16,0,0,1,2-4c1-2,2-2,4-2"/><path class="a" d="M992,71.67h26a5.2,5.2,0,0,1,4,2,7.52,7.52,0,0,1,2,4v80l85-86.95c1-1,1-1,2-1h3a5.2,5.2,0,0,1,4,2,7.55,7.55,0,0,1,2,4V228.59a5.17,5.17,0,0,1-2,4,7.58,7.58,0,0,1-4,2h-26a5.19,5.19,0,0,1-4-2,7.55,7.55,0,0,1-2-4v-80l-85,87c-1,1-1,1-2,1h-3a5.17,5.17,0,0,1-4-2,7.59,7.59,0,0,1-2-4V77.66a5.16,5.16,0,0,1,2-4,4,4,0,0,1,4-2"/></svg>