<?xml version="1.0" encoding="utf-8"?>
<!-- Generator: Adobe Illustrator 25.4.1, SVG Export Plug-In . SVG Version: 6.00 Build 0)  -->
<svg version="1.1" id="Слой_1" xmlns="http://www.w3.org/2000/svg" xmlns:xlink="http://www.w3.org/1999/xlink" x="0px" y="0px"
	 viewBox="0 0 250 44" style="enable-background:new 0 0 250 44;" xml:space="preserve">
<style type="text/css">
	.st0{fill:#433630;}
	.st1{fill:#E42686;}
</style>
<g>
	<g>
		<polygon class="st0" points="63.8,18.8 61.4,18.8 55.2,18.8 50.1,18.8 50.1,24.1 53.1,24.1 49.4,33.7 47.5,33.7 47.5,39 57.7,39 
			57.7,33.7 55.7,33.7 59.1,24.3 62.3,33.7 60.4,33.7 60.4,39 70.9,39 70.9,33.7 69,33.7 		"/>
		<path class="st0" d="M36.1,18.3c-5.5,0-10.5,3.9-10.5,10.6c0,6.6,4.6,10.6,10.6,10.6c5.6,0,9.1-2.8,10.2-6.6h-6.6
			c0,0-0.8,1.3-3.4,1.3c-2.6,0-3.9-1.8-4-3.4h14.3c0,0,0.1-0.9,0.1-1.6C46.8,22.4,42.3,18.3,36.1,18.3z M32.5,26.5
			c0.3-1.7,1.8-2.9,3.7-2.9c2.3,0,3.5,1.6,3.6,2.9H32.5z"/>
		<g>
			<g>
				<path class="st1" d="M245.3,0c-3.3,0-5.1,3.3-5.6,5.4c0,0-1-5-4.5-5c-2.3,0-3.9,2.4-3.9,5.8c0,6.3,4.1,12.6,8.4,12.6
					c5.1,0,10.1-6.8,10.1-13.3C249.7,2.3,248.2,0,245.3,0z M239.8,16.9c-3.3,0-6.5-5.2-6.5-10.5c0-2.9,0.9-4.2,1.9-4.2
					c2.4,0,3.4,5.2,3.6,6.6c0.1,0.7,0.4,0.9,0.8,0.9c0.6,0,0.8-0.4,0.9-0.7c0.5-1.5,1.6-7.1,4.8-7.1c1.6,0,2.4,1.3,2.4,4
					C247.7,10.6,243.6,16.9,239.8,16.9z"/>
			</g>
		</g>
		<path class="st0" d="M14.7,22.9h-5v-5.3h5.6v3.3H22v-8.6H0.3v5.3h2.8v16.2H0.3V39h14.3c6.2,0,9.2-3.5,9.2-8.2
			C23.7,26.1,20.8,22.9,14.7,22.9z M14,33.7H9.7v-5.5H14c1.4,0,2.9,0.9,2.9,2.8C16.9,32.8,15.3,33.7,14,33.7z"/>
		<path class="st0" d="M148.2,12.4h-14.7l-0.1,5.3h2.9l-4.8,16h-2.9v10.2h6.6V39h14.9v5h6.6V33.7H154L148.2,12.4z M138.6,33.7
			l4.2-15.3l4,15.3H138.6z"/>
		<path class="st0" d="M195.4,23.9h2v2.6c0,0-1,0.7-3,0.7c-1.5,0-2.8-0.6-2.8-2.5c0-0.4,0-0.7,0-0.8h2v-5.1h-10.7v5.3h2.1
			c0,0.2,0,1.3,0,1.4c0,4.5,3,6.8,7.5,6.8c3.2,0,5.1-0.9,5.1-0.9v2.4h-2.8V39h11.4v-5.1H204v-10h2.1v-5.1h-10.7L195.4,23.9
			L195.4,23.9z"/>
		<path class="st0" d="M86.8,20.8c-1.2-1.2-3.3-2.5-6.5-2.5c-5.3,0-9.5,4.3-9.5,10.6c0.3,6.2,3.9,10.6,9.5,10.6
			c3.1,0,5.1-1.3,6.5-2.5v2h8v-5.3h-2.1v-9.6h2.1v-5.3h-8V20.8z M81.8,33.8c-2.8,0-4.6-2.1-4.6-4.9c0-2.7,1.7-4.9,4.6-4.9
			c2.6,0.1,4.6,2.2,4.6,4.9C86.4,31.7,84.7,33.8,81.8,33.8z"/>
		<path class="st0" d="M173,20.8c-1.2-1.2-3.3-2.5-6.5-2.5c-5.3,0-9.5,4.3-9.5,10.6c0.3,6.2,3.9,10.6,9.5,10.6
			c3.1,0,5.1-1.3,6.5-2.5v2h8v-5.3h-2.1v-9.6h2.1v-5.3h-8V20.8z M168,33.8c-2.8,0-4.6-2.1-4.6-4.9c0-2.7,1.7-4.9,4.6-4.9
			c2.6,0.1,4.6,2.2,4.6,4.9C172.6,31.7,170.9,33.8,168,33.8z"/>
		<path class="st0" d="M223.5,20.8c-1.2-1.2-3.3-2.5-6.5-2.5c-5.3,0-9.5,4.3-9.5,10.6c0.3,6.2,3.9,10.6,9.5,10.6
			c3.1,0,5.1-1.3,6.5-2.5v2h8v-5.3h-2.1v-9.6h2.1v-5.3h-8V20.8z M218.5,33.8c-2.8,0-4.6-2.1-4.6-4.9c0-2.7,1.7-4.9,4.6-4.9
			c2.6,0.1,4.6,2.2,4.6,4.9C223,31.7,221.3,33.8,218.5,33.8z"/>
		<path class="st0" d="M97,25.6c0,3.4,2.2,5.2,4.6,6l-2.3,2.2h-2.5V39h6.2l6.1-6.6V39h8.7v-5.3h-2.1v-9.6h2.1v-5.3h-13.3
			C100.3,18.8,97,21.5,97,25.6z M109.2,24.1v4.2H106c-1.1,0-2.3-0.7-2.3-2s0.8-2.1,2.3-2.1C106,24.1,109.2,24.1,109.2,24.1z"/>
	</g>
</g>
</svg>
