<svg xmlns="http://www.w3.org/2000/svg" xmlns:xlink="http://www.w3.org/1999/xlink" viewBox="0 0 216.82 166.49"><defs><style>.a{fill:none;}.b{fill:#d4d4d4;}.c{fill:#fff;}.d{fill:#038737;}.e{clip-path:url(#a);}.f{fill:url(#b);}.g{fill:#5baf2d;}</style><clipPath id="a"><path class="a" d="M172.24,88.87c0,4.63,1.66,9.28,8.32,11.58,10.63,3.69,17.72-5.44,17.72-5.44-10.9,4.63-17.85-1.23-17.62-8.46.1-3.13,0-7.44,0-7.44l-8.42-.52Z"/></clipPath><linearGradient id="b" x1="-336.5" y1="-216.13" x2="-335.5" y2="-216.13" gradientTransform="matrix(0, 15.65, 15.65, 0, 3567.71, 5347.05)" gradientUnits="userSpaceOnUse"><stop offset="0" stop-color="#038837"/><stop offset="0.35" stop-color="#239634"/><stop offset="1" stop-color="#5bb02e"/></linearGradient></defs><path class="b" d="M39,166.49c-9.87,0-18.11-5.06-20.06-12.29-1.49-5.54,1.15-10.9,7.07-14.34a3.93,3.93,0,0,1,5.82,4.24,8.08,8.08,0,0,0,1.38,7,6.22,6.22,0,0,0,4.71,2.44c4.31-.1,7.23-2.61,7.26-4.9.06-3.26-3.6-5.51-9.63-8.83-7-3.82-15.62-8.59-15.13-18.69a15.56,15.56,0,0,1,7.28-12.63C10.6,108.19,0,96.26,0,77.21,0,66.66,3.94,57.8,11.08,52.27c4.55-3.58,11.16-5.65,18.1-5.65,6.57,0,12.43,1.87,16.51,5.26a13.7,13.7,0,0,1,4.84,7.69,3.94,3.94,0,0,1,3.17-2.3A21.82,21.82,0,0,1,56,57.14a13.7,13.7,0,0,1,7.73,2.13,18.94,18.94,0,0,1,9.7-2.7,15.59,15.59,0,0,1,7.25,1.7,9.93,9.93,0,0,1,4.64,5.32,20,20,0,0,1,15.56-7.17c7.73,0,12.55,3.66,14.83,8.45a20,20,0,0,1,16.54-8.44,16.94,16.94,0,0,1,11.16,3.66v-.16a4,4,0,0,1,3.3-2.7,23.52,23.52,0,0,1,2.37-.13A13.68,13.68,0,0,1,156.45,59,21.86,21.86,0,0,1,167,56.42c12.16,0,17.6,8.2,17.59,16.31v6.38c0,.09.1,4.36,0,7.57a5.5,5.5,0,0,0,4.3,5.8,3.92,3.92,0,0,1,1.84-1.62c.2-.09,8.91-4.08,11.54-13.65,3.15-11.45-3.46-25.68-14.43-31.07a29.12,29.12,0,0,0-12.72-3.34,21.05,21.05,0,0,0-13,4.62,22.94,22.94,0,0,1-13.79,5c-5.57,0-10.23-2.51-12.49-6.7A12,12,0,0,1,135,35.16c1.89-4.6,6.76-8.12,14.46-10.46a34.91,34.91,0,0,1,10-1.4,50.32,50.32,0,0,1,10.73,1.25,20.81,20.81,0,0,1,.13-8.5C172.48,5.88,183,1.25,191.91,1.25a21.54,21.54,0,0,1,10.27,2.38,9.3,9.3,0,0,1,4.78,11c-1.2,4.93-6.25,10.86-10.63,10.86a4.61,4.61,0,0,1-1.76-.32A9.38,9.38,0,0,1,191.4,23c-1-.92-1.18-1-1.66-1a6.06,6.06,0,0,0-2.09.52,2.27,2.27,0,0,0-1.4,1.16,3.37,3.37,0,0,0-.15,1.57c6.7,1.82,24,8.67,28.19,31.64,2.85,15.55-1.23,25.27-5.15,30.68a28.43,28.43,0,0,1-7,6.84,4,4,0,0,1-.77,3.08c-.25.32-6.21,7.84-15.8,7.84a16.64,16.64,0,0,1-2-.11,12.13,12.13,0,0,1,.86,4.64l-.09,36.51c0,3.81.49,5.62.72,6.1A3.93,3.93,0,0,1,185,158a3.87,3.87,0,0,1-2.38,1.09c-.7.06-1.39.09-2.05.09a13.65,13.65,0,0,1-7.2-1.79,21.64,21.64,0,0,1-9.78,2.2,19.23,19.23,0,0,1-14-5.78,19.74,19.74,0,0,1-2.88-3.79,8.06,8.06,0,0,0,.53,2.33,3.93,3.93,0,0,1-2.43,6.65c-.76.07-1.5.11-2.22.11a13.61,13.61,0,0,1-7.66-2,28.91,28.91,0,0,1-11.2,2.57,20.9,20.9,0,0,1-5.72-.8,12.09,12.09,0,0,1-5.12-2.94,3.59,3.59,0,0,1-.12.47,4,4,0,0,1-3.35,2.67c-.74.07-1.47.1-2.16.1h0a12.85,12.85,0,0,1-9.13-3.22,1.21,1.21,0,0,1-.1.36A3.9,3.9,0,0,1,94.67,159a18.34,18.34,0,0,1-2.22.11,13.61,13.61,0,0,1-7.66-2A29,29,0,0,1,73.6,159.6a20.9,20.9,0,0,1-5.72-.8,12.45,12.45,0,0,1-6.53-4.52c-3.19,7.57-11.49,12.21-22.36,12.21m126.24-38.15c-3.29,0-5.58,3.06-5.58,7.45,0,7.46,3.23,10.8,6.45,10.8,1,0,1.85-.39,2-.86l.07-16.59a6.32,6.32,0,0,0-2.91-.8m-35,12.41c-2,.77-3.95,1.67-4.53,2.59a2.78,2.78,0,0,0-.37,2.48c.35.63,1.63.7,2.16.7a11.57,11.57,0,0,0,2.74-.36Zm-50.11,0c-2,.77-4,1.67-4.54,2.59a2.74,2.74,0,0,0-.36,2.48c.35.63,1.63.7,2.16.7a11.57,11.57,0,0,0,2.74-.36ZM40.88,117.6c-2.14,0-3.65.72-3.82,1.39-.53,2.06,2.79,4,8.33,7,5.31,2.83,11.89,6.35,15.26,12.23a14.39,14.39,0,0,1,4.11-4.33,8.77,8.77,0,0,1-3.36-4.3,9.14,9.14,0,0,1,1.13-8.1c2.91-4.54,10.12-6.17,15.4-6.17,8.2,0,14.4,3.25,17.06,8.53V111.37c0-3.85-.49-5.68-.72-6.17a3.93,3.93,0,0,1-.9-4,4,4,0,0,1,.94-1.52C85.8,96.93,80.12,88.83,80.13,78.44q0-1.29.12-2.55A12.66,12.66,0,0,1,76.76,77a4.17,4.17,0,0,1-.71.06,3.92,3.92,0,0,1-3.93-3.91,4,4,0,0,1,.23-1.33,2.57,2.57,0,0,0,.1-2,1.69,1.69,0,0,0-.67-.11c-2.36,0-3.59,1.14-3.59,1.76V87.44c0,4.29.57,5.8.71,6.11a3.93,3.93,0,0,1-.07,5.55,3.87,3.87,0,0,1-2.38,1.09c-.74.07-1.47.11-2.17.11h0c-6.39,0-10.73-3.07-12-8.2a24.16,24.16,0,0,1-10,12.75c6.85.14,12.08,2.68,14.42,7a11.09,11.09,0,0,1-.82,11.49,3.92,3.92,0,0,1-3.28,1.78h-.53a3.91,3.91,0,0,1-3.21-2.7c-1-3.28-4.88-4.78-8-4.78m70.36,19.85a14.77,14.77,0,0,1,3.65-3.62,8.75,8.75,0,0,1-3.35-4.3,8.25,8.25,0,0,1-.3-1Zm-38.28-7.14c1.5-.43,2.85-.75,4.06-1,.72-.17,1.4-.33,2-.5a11.64,11.64,0,0,0-3.11-.4,3.55,3.55,0,0,0-2.62.89,1.69,1.69,0,0,0-.47.79.68.68,0,0,0,.11.25m50-.24.11.26c1.5-.43,2.86-.75,4.06-1,.73-.17,1.42-.33,2-.5a11.37,11.37,0,0,0-3.12-.4,3.53,3.53,0,0,0-2.62.89,1.92,1.92,0,0,0-.48.78M128,115.39c9.13,0,15.79,4,17.83,10.42,3.73-7,11-10.21,17.85-10.2a21.13,21.13,0,0,1,4.42.47v-4.62c0-4.37-.51-5.8-.67-6.14a3.93,3.93,0,0,1,2.37-6.68c.44,0,.88-.08,1.3-.1a15.93,15.93,0,0,1-2.85-9.62V74.12c0-4.07-2.87-4.51-4.11-4.51a5.84,5.84,0,0,0-2.91.8v17c0,4.3.57,5.81.71,6.11a3.94,3.94,0,0,1-.11,5.57,3.86,3.86,0,0,1-2.34,1.08c-.75.07-1.48.11-2.18.11-5.24,0-9.13-2.06-11-5.61-2.66,3.87-7.73,6.07-14,6.07a19.91,19.91,0,0,1-16.29-8,10,10,0,0,1-.67,1.3,14.14,14.14,0,0,1-9.23,6.1c3.27,1.88,5.13,5.22,5.13,9.61v15.1a9.92,9.92,0,0,1,1.42-3.37c2.9-4.55,10.11-6.17,15.4-6.17M30.19,59.74c-7.57,0-13.06,7.17-13.06,17,0,8.85,3.73,18.4,12,18.47,6.23,0,8.69-5.26,9.66-9.34h-13a7.69,7.69,0,0,1-6-2.38c-1.15-1.27-2.43-3.58-2-7.45a3.94,3.94,0,0,1,2.66-3.35,4.29,4.29,0,0,1,1.18-.2A4,4,0,0,1,24,73.3a11.93,11.93,0,0,0,2.53.18H44.71a9,9,0,0,1,6.69,2.65c.21.23.42.47.61.72V70.09c0-3.87-.49-5.7-.72-6.19a3.77,3.77,0,0,1-.58-.78,10.1,10.1,0,0,1-.56,2.37c-1.61,4.49-6,7.28-11.39,7.27H37.47a3.92,3.92,0,0,1-3.63-4.19A4,4,0,0,1,35,66a3.21,3.21,0,0,0,1-3.58c-.67-1.67-2.84-2.66-5.81-2.66m103.38,9.7c-1.41,0-3.94,1.74-4.86,5.68a6.47,6.47,0,0,0,2.9-.86A4.38,4.38,0,0,0,134,70.2a2,2,0,0,0-.15-.71h-.21m-31.37,0c-1.42,0-3.94,1.74-4.86,5.68a6.28,6.28,0,0,0,2.89-.87,4.36,4.36,0,0,0,2.33-4.1,2,2,0,0,0-.15-.71h-.21"/><path class="c" d="M40.6,165.26c-9.86,0-18.11-5.06-20.06-12.29-1.49-5.54,1.16-10.9,7.08-14.34a3.93,3.93,0,0,1,5.81,4.24,8.12,8.12,0,0,0,1.39,7,6.19,6.19,0,0,0,4.7,2.44c4.31-.09,7.23-2.61,7.27-4.9.06-3.26-3.6-5.51-9.64-8.83C30.2,134.76,21.54,130,22,119.9a15.55,15.55,0,0,1,7.28-12.66C12.16,106.93,1.6,95,1.6,75.94,1.6,65.4,5.54,56.54,12.68,51c4.55-3.58,11.15-5.65,18.09-5.65,6.57,0,12.44,1.87,16.51,5.26a13.72,13.72,0,0,1,4.85,7.69A3.94,3.94,0,0,1,55.3,56a21.82,21.82,0,0,1,2.29-.13A13.72,13.72,0,0,1,65.32,58a18.94,18.94,0,0,1,9.7-2.7A15.59,15.59,0,0,1,82.27,57a9.93,9.93,0,0,1,4.64,5.32,20,20,0,0,1,15.55-7.17c7.74,0,12.56,3.66,14.84,8.45a20,20,0,0,1,16.54-8.44A16.94,16.94,0,0,1,145,58.83a1.42,1.42,0,0,1,.05-.16,3.94,3.94,0,0,1,3.29-2.7,23.56,23.56,0,0,1,2.38-.13,13.64,13.64,0,0,1,7.37,1.94,21.9,21.9,0,0,1,10.51-2.62c12.15,0,17.59,8.2,17.59,16.31v6.38c0,.1.09,4.36,0,7.57a5.5,5.5,0,0,0,4.31,5.8,4,4,0,0,1,1.83-1.62c.21-.09,8.91-4.08,11.54-13.66,3.15-11.44-3.46-25.67-14.42-31.06a29.16,29.16,0,0,0-12.73-3.34,21.05,21.05,0,0,0-13,4.62,22.91,22.91,0,0,1-13.8,5c-5.56,0-10.23-2.5-12.49-6.7a12.06,12.06,0,0,1-.83-10.55c1.9-4.6,6.76-8.12,14.46-10.46a34.91,34.91,0,0,1,10-1.4,50.32,50.32,0,0,1,10.73,1.25,21,21,0,0,1,.13-8.5C174.12,4.63,184.67,0,193.55,0a21.53,21.53,0,0,1,10.26,2.38,9.28,9.28,0,0,1,4.78,11c-1.25,4.94-6.3,10.91-10.68,10.91a4.87,4.87,0,0,1-1.77-.33A9.72,9.72,0,0,1,193,21.74c-1-.92-1.18-1-1.66-1a6,6,0,0,0-2.08.52,2.24,2.24,0,0,0-1.4,1.16,3.37,3.37,0,0,0-.16,1.57c6.71,1.82,24,8.67,28.2,31.64,2.84,15.55-1.24,25.27-5.16,30.68a28.43,28.43,0,0,1-7,6.84,3.91,3.91,0,0,1-.77,3.08c-.25.32-6.2,7.84-15.79,7.84a16.64,16.64,0,0,1-2-.11,12.31,12.31,0,0,1,.85,4.64l-.08,36.51c0,3.81.48,5.62.71,6.1a3.93,3.93,0,0,1-2.46,6.65c-.7.06-1.39.1-2,.09a13.67,13.67,0,0,1-7.21-1.78,21.75,21.75,0,0,1-9.77,2.19,19.23,19.23,0,0,1-14-5.78,19.74,19.74,0,0,1-2.88-3.79,8.11,8.11,0,0,0,.52,2.34,3.92,3.92,0,0,1-2.43,6.64,18.07,18.07,0,0,1-2.21.11,13.61,13.61,0,0,1-7.66-2,29,29,0,0,1-11.21,2.57,20.83,20.83,0,0,1-5.71-.8,12.09,12.09,0,0,1-5.12-2.94,3.62,3.62,0,0,1-.13.47,3.92,3.92,0,0,1-3.35,2.67c-.74.07-1.47.1-2.16.1h0a12.84,12.84,0,0,1-9.12-3.22,1.21,1.21,0,0,1-.1.36,4,4,0,0,1-3.34,2.68,20.32,20.32,0,0,1-2.21.12,13.61,13.61,0,0,1-7.66-2,29,29,0,0,1-11.21,2.57,20.83,20.83,0,0,1-5.71-.8,12.34,12.34,0,0,1-6.53-4.51c-3.18,7.44-11.49,12.11-22.32,12.11m126.2-38.15c-3.28,0-5.57,3.07-5.57,7.45,0,7.46,3.23,10.8,6.44,10.8,1,0,1.86-.39,2-.86l.06-16.59a6.2,6.2,0,0,0-2.91-.8m-35,12.41c-2,.77-4,1.68-4.54,2.6a2.72,2.72,0,0,0-.36,2.47c.35.63,1.62.7,2.16.7a11.57,11.57,0,0,0,2.74-.36Zm-50.11,0c-2,.77-4,1.68-4.54,2.6a2.72,2.72,0,0,0-.36,2.47c.35.63,1.62.7,2.16.7a11.43,11.43,0,0,0,2.73-.36ZM42.46,116.34c-2.14,0-3.65.72-3.83,1.4-.53,2.05,2.8,4,8.33,7,5.31,2.83,11.9,6.35,15.27,12.23a14.2,14.2,0,0,1,4.1-4.32A8.88,8.88,0,0,1,63,128.29a9.12,9.12,0,0,1,1.13-8.06c2.9-4.55,10.12-6.18,15.4-6.18,8.2,0,14.4,3.26,17.06,8.53V110.11c0-3.86-.49-5.69-.73-6.18a4,4,0,0,1,0-5.5c-8.51-2.75-14.18-10.85-14.18-21.24q0-1.31.12-2.55a12.6,12.6,0,0,1-3.48,1.15,4.17,4.17,0,0,1-.71.06,3.93,3.93,0,0,1-3.93-3.91,4,4,0,0,1,.23-1.32,2.61,2.61,0,0,0,.09-2,1.69,1.69,0,0,0-.67-.11c-2.35,0-3.58,1.14-3.58,1.76V86.2c0,4.29.58,5.8.72,6.11a3.93,3.93,0,0,1-.1,5.56A3.88,3.88,0,0,1,68,99c-.75.07-1.48.11-2.17.11h0c-6.38,0-10.73-3.07-12-8.2a24.16,24.16,0,0,1-10,12.75c6.85.14,12.08,2.69,14.42,7a11.11,11.11,0,0,1-.82,11.49,3.92,3.92,0,0,1-3.28,1.77h-.54a3.91,3.91,0,0,1-3.21-2.7c-1-3.28-4.88-4.78-8-4.78m70.34,19.9a14.12,14.12,0,0,1,3.65-3.62,8.9,8.9,0,0,1-3.36-4.31,6.75,6.75,0,0,1-.29-1Zm-38.23-7.2c1.5-.43,2.86-.75,4.06-1,.73-.17,1.41-.33,2-.5a11.64,11.64,0,0,0-3.11-.4,3.63,3.63,0,0,0-2.62.89,1.69,1.69,0,0,0-.47.79l.1.25m50-.24a.66.66,0,0,0,.11.26c1.49-.43,2.85-.75,4-1l2.06-.5a11,11,0,0,0-3.13-.4,3.63,3.63,0,0,0-2.62.89,1.9,1.9,0,0,0-.47.78m5.1-14.78c9.14,0,15.8,4,17.83,10.42,3.74-7,11-10.2,17.86-10.2a21.13,21.13,0,0,1,4.42.47V110.2c0-4.37-.51-5.8-.68-6.13a4,4,0,0,1-1-4,4,4,0,0,1,3.33-2.72c.44,0,.88-.08,1.31-.1a15.9,15.9,0,0,1-2.85-9.61V72.8c0-4.07-2.88-4.51-4.11-4.51a5.84,5.84,0,0,0-2.91.8v17c0,4.29.57,5.8.71,6.1A3.93,3.93,0,0,1,161,98.89c-.74.07-1.47.11-2.17.11-5.25,0-9.13-2.06-11-5.61-2.67,3.87-7.74,6.07-14,6.07a19.9,19.9,0,0,1-16.26-8,12.26,12.26,0,0,1-.67,1.3,14.16,14.16,0,0,1-9.23,6.1c3.27,1.88,5.13,5.22,5.13,9.61v15.1a10,10,0,0,1,1.42-3.36c2.9-4.55,10.12-6.18,15.4-6.18M31.77,58.49c-7.57,0-13.06,7.16-13.07,17,0,8.85,3.74,18.41,12,18.46,6.24,0,8.69-5.25,9.66-9.33h-13a7.7,7.7,0,0,1-5.93-2.48c-1.14-1.26-2.42-3.58-2-7.45A3.92,3.92,0,0,1,22,71.35a4,4,0,0,1,1.25-.21,3.93,3.93,0,0,1,2.38.81,11.93,11.93,0,0,0,2.53.18H46.29A8.94,8.94,0,0,1,53,74.78a8.42,8.42,0,0,1,.62.72V68.79c0-3.87-.49-5.7-.72-6.19a3.44,3.44,0,0,1-.58-.78,11.21,11.21,0,0,1-.56,2.37c-1.61,4.49-6,7.28-11.4,7.28H39a3.93,3.93,0,0,1-3.62-4.23,4,4,0,0,1,1.18-2.52,3.21,3.21,0,0,0,1-3.58c-.69-1.65-2.87-2.65-5.83-2.65m103.38,9.73c-1.4,0-3.94,1.74-4.86,5.68a6.19,6.19,0,0,0,2.9-.86,4.39,4.39,0,0,0,2.33-4.11,1.63,1.63,0,0,0-.16-.71h-.2m-31.37,0c-1.41,0-3.94,1.74-4.86,5.68a6.32,6.32,0,0,0,2.9-.87,4.36,4.36,0,0,0,2.33-4.1,1.79,1.79,0,0,0-.16-.71h-.19"/><path class="d" d="M30.19,55.81c-9.9,0-17,9-17,21S18.86,99.13,29,99.2c9.12.08,12.85-7.85,13.9-14.31.43-3-.49-2.88-2.45-2.88H25.69c-2.88,0-4.42-2-4.07-5.62.84.91,3.44,1,4.91,1H44.71c4.35,0,5.47,3.37,5.33,6.46C49.6,92.74,43.79,104,29.6,104.49c-17.41.63-25.68-11.24-25.68-27.31,0-10,3.94-17.48,9.56-21.83,7.65-6,22.25-6.66,29.68-.48,6.74,5.55,3.79,14.6-5.41,13.9,4.85-4.7,2.26-13-7.57-13"/><path class="d" d="M63.39,64.49c4-4,11-5.12,15.44-2.74s4.56,10.11-2.75,11.44c1.27-3.58,0-7.37-4.27-7.37s-7.52,2.6-7.52,5.68V87.44c0,2.66.21,7.37,1.82,8.84-6.6.63-10.18-2.11-10.17-7.3V70.09c0-2.6-.21-7.44-1.82-8.92,4.56-.49,7.72.78,9.27,3.31"/><path class="d" d="M93.28,81.68c.84,5.48,3.71,9.9,8.77,9.9,6,0,9.54-4.2,9.9-6.87,3.08,5.83-1.06,12.07-11,12.07S84.08,89.12,84.08,78.49s7.31-18.1,16.78-18.1,12.5,6.6,12.49,11.73-2.6,8.35-6.74,10.52-11,1.54-13.33-.92m8.91-4a8.32,8.32,0,0,0,4.29-7.93c-.63-7.79-13.27-4.71-13.41,8.34v.36a11.48,11.48,0,0,0,9.12-.83"/><path class="d" d="M124.65,81.7c.84,5.47,3.72,9.89,8.77,9.89,6,0,9.55-4.2,9.9-6.87,3.08,5.83-1.06,12.07-11,12.07s-16.85-7.66-16.84-18.33,7.3-18.1,16.78-18.1S144.75,67,144.75,72.09s-2.6,8.35-6.75,10.52-11,1.54-13.33-.91m8.92-4a8.31,8.31,0,0,0,4.28-7.93c-.63-7.79-13.26-4.71-13.41,8.35v.42a11.55,11.55,0,0,0,9.13-.84"/><path class="d" d="M58.72,149.26c-1.2,8.14-8.85,13.34-19.73,13.33-14.53,0-22.6-12.57-11-19.3-1.83,8.28,4.13,14.25,10,14.18,6.39-.14,11-4.21,11.09-8.77.22-12.28-25.47-12.78-24.76-27.38.35-7.23,6.18-12.57,17.34-12.56s14.61,6.88,10.94,12.43c-2.87-9-17.68-9.76-19.37-3.17-3,11.72,28.42,11.73,25.47,31.24"/><path class="d" d="M65.82,123.65c4.07-6.39,26.67-7.08,26.67,6.39v16.15c0,2.66.21,7.37,1.82,8.84-4.14.42-7.16-.56-8.77-2.6C79.85,155,74.73,156.64,69,155a8.73,8.73,0,0,1-6-6.46c-1.61-8.07,3.37-11.58,7-13,5.13-2,9-2.38,12.15-3.51,1.75-.56,2-.91,2-2.52-.28-3.16-3-5-8.14-5-5.61,0-8,4.7-6.67,7.23-4.84-1.55-5.19-5.41-3.43-8.07m18.24,11.65c-4.35,1.41-9.9,2.95-11.79,6-2.32,3.71-1.27,9.19,5.12,9.19a21.67,21.67,0,0,0,6.66-1.33Z"/><path class="d" d="M107.3,109.76v36.5c0,2.67.14,7.37,1.75,8.84-6.53.63-10.18-2.1-10.18-7.3L99,111.38c0-2.6-.21-7.44-1.82-8.92,6.6-.63,10.17,2.11,10.17,7.3"/><path class="d" d="M115.93,123.66c4.07-6.38,26.67-7.08,26.67,6.4v16.15c0,2.66.21,7.36,1.82,8.84-4.14.42-7.16-.57-8.77-2.6C130,155,124.84,156.66,119.09,155a8.73,8.73,0,0,1-6-6.46c-1.61-8.07,3.38-11.58,7-13.05,5.12-2,9-2.39,12.14-3.51,1.76-.56,2-.91,2-2.52-.27-3.16-3-5-8.13-5-5.62,0-8,4.7-6.67,7.23-4.85-1.55-5.2-5.41-3.44-8.08m18.24,11.66c-4.35,1.41-9.89,2.95-11.79,6-2.32,3.72-1.27,9.2,5.12,9.2a21.73,21.73,0,0,0,6.67-1.33Z"/><path class="d" d="M182.24,155.13c-3,.28-6.45-.07-8.49-2.53a17.8,17.8,0,0,1-10.18,3c-9.61,0-16.63-7.73-16.27-19.8.5-15.93,16.92-19.37,24.78-14V111.4c0-2.59-.13-7.44-1.82-8.91,6.6-.7,10.25,2.11,10.25,7.3l-.09,36.5c0,2.6.21,7.37,1.82,8.84m-10.16-28c-7.3-6-16.36-1.33-16.36,8.7,0,17.69,15.71,17.21,16.28,10.19Z"/><path class="d" d="M156.17,64.09c-1.54-2.32-4.63-3.44-9-3,1.61,1.47,1.75,6.32,1.75,8.91V88.93c0,5.2,3.65,7.94,10.25,7.31-1.62-1.48-1.83-6.18-1.83-8.85V68.49c5.2-5.12,14.88-3.29,14.88,5.62v6.5c2.09-.12,5.38-.3,8.42-.44V72.79c0-14-17.75-15-24.49-8.65"/><g class="e"><rect class="f" x="167.72" y="73.95" width="35.07" height="34.87" transform="translate(-21.17 99.22) rotate(-28.43)"/></g><path class="g" d="M192.29,94.49c7.5-1.49,22.9-10.89,18.14-36.93S182.9,28.49,182.9,28.49s-3.13-7.09,3.28-9.67,7.36,1.77,9.82,2.73,12.4-10.06,4.36-14.46-23.76-1.25-26.17,9.8c-1.92,8.86,3.4,14.05,3.4,14.05s-14.45-6.28-27-2.45-14.18,10.08-11.32,15.4,12,6.82,20.45.42S178,37,189.57,42.63c12.66,6.22,20.16,22.28,16.49,35.64-3.21,11.7-13.77,16.21-13.77,16.21"/><path class="g" d="M83.79,26a6.58,6.58,0,0,1-.42,2.41,5.28,5.28,0,0,1-3,3.09,5.93,5.93,0,0,1-2.35.42,5.6,5.6,0,0,1-2.32-.44,5,5,0,0,1-1.82-1.23,5.61,5.61,0,0,1-1.17-1.89,7.19,7.19,0,0,1,0-4.8,5.76,5.76,0,0,1,1.17-1.88,5.39,5.39,0,0,1,1.82-1.2A6,6,0,0,1,78,20.07a6.1,6.1,0,0,1,2.35.45,5.35,5.35,0,0,1,3,3.13,6.6,6.6,0,0,1,.42,2.4m-1.62,0a6.07,6.07,0,0,0-.29-1.93,4.38,4.38,0,0,0-.83-1.45,3.82,3.82,0,0,0-1.3-.91,4.77,4.77,0,0,0-3.41,0,3.66,3.66,0,0,0-1.3.9,4,4,0,0,0-.84,1.44,6.48,6.48,0,0,0,0,3.85A3.8,3.8,0,0,0,75,29.39a3.48,3.48,0,0,0,1.3.91,4.77,4.77,0,0,0,3.41,0,3.35,3.35,0,0,0,1.3-.9A4.1,4.1,0,0,0,81.88,28a5.92,5.92,0,0,0,.29-1.92"/><path class="g" d="M87.44,20.22h.13l.11.08.12.13,6.8,8.85v-9H96V31.9H95.2a.57.57,0,0,1-.31-.07.59.59,0,0,1-.25-.22L87.9,22.8v9.06H86.52V20.2h1"/><polygon class="g" points="100.84 30.6 105.88 30.63 105.88 31.95 99.27 31.92 99.27 20.27 100.84 20.27 100.84 30.6"/><path class="g" d="M110.87,27.33V32h-1.58V27.33l-4.27-7h1.38a.6.6,0,0,1,.34.11,1.26,1.26,0,0,1,.21.26l2.65,4.51q.15.28.27.54a5.16,5.16,0,0,1,.21.49c.06-.16.12-.32.2-.49s.16-.34.26-.53l2.66-4.52a1.16,1.16,0,0,1,.2-.25.55.55,0,0,1,.33-.11h1.39Z"/><polygon class="g" points="75.87 36.41 75.87 37.69 70.27 37.66 70.27 41.74 75.06 41.76 75.06 43.05 70.27 43.02 70.27 48.03 68.69 48.02 68.69 36.37 75.87 36.41"/><path class="g" d="M79.86,43.22v4.86H78.29V36.42l3.31.07a7.17,7.17,0,0,1,1.9.23,3.88,3.88,0,0,1,1.34.65,2.69,2.69,0,0,1,.77,1,3.27,3.27,0,0,1,.26,1.34,3.39,3.39,0,0,1-.2,1.15,2.9,2.9,0,0,1-.56,1,3.18,3.18,0,0,1-.91.73A3.83,3.83,0,0,1,83,43a2.52,2.52,0,0,1,.53.5l3.39,4.65h-1.4a.67.67,0,0,1-.64-.34l-3-4.17a.83.83,0,0,0-.3-.29,1.22,1.22,0,0,0-.5-.08Zm0-1.15h1.66a3.8,3.8,0,0,0,1.21-.16,2.34,2.34,0,0,0,.87-.42,1.9,1.9,0,0,0,.53-.72,2.28,2.28,0,0,0,.18-.94,1.89,1.89,0,0,0-.71-1.61,3.43,3.43,0,0,0-2-.54H79.86Z"/><polygon class="g" points="96.07 36.51 96.07 37.8 90.46 37.77 90.46 41.64 95 41.66 95 42.9 90.46 42.87 90.46 46.85 96.08 46.88 96.07 48.16 88.89 48.13 88.89 36.47 96.07 36.51"/><path class="g" d="M104.65,38.38a.46.46,0,0,1-.16.18.32.32,0,0,1-.21.06.55.55,0,0,1-.32-.14l-.47-.31a5.24,5.24,0,0,0-.68-.31,3.41,3.41,0,0,0-1-.14,3,3,0,0,0-.94.14,2.33,2.33,0,0,0-.67.38,1.63,1.63,0,0,0-.41.57,2,2,0,0,0-.14.71,1.29,1.29,0,0,0,.24.81,1.88,1.88,0,0,0,.64.55,3.74,3.74,0,0,0,.89.4c.33.12.68.23,1,.36s.7.25,1,.4a3.81,3.81,0,0,1,.9.57,2.73,2.73,0,0,1,.63.84,2.86,2.86,0,0,1,.24,1.22,4.13,4.13,0,0,1-.26,1.44,3.34,3.34,0,0,1-.76,1.16A3.24,3.24,0,0,1,103,48a4.44,4.44,0,0,1-1.65.28,4.92,4.92,0,0,1-2.07-.42,4.79,4.79,0,0,1-1.59-1.12l.46-.74a.57.57,0,0,1,.16-.15.39.39,0,0,1,.21-.06.62.62,0,0,1,.24.08l.3.22.39.29a3.53,3.53,0,0,0,.5.28,2.43,2.43,0,0,0,.64.22,3.53,3.53,0,0,0,1.81-.06,1.85,1.85,0,0,0,.74-.43,1.89,1.89,0,0,0,.47-.67,2.32,2.32,0,0,0,.16-.87,1.51,1.51,0,0,0-.24-.87,2,2,0,0,0-.63-.56,4.71,4.71,0,0,0-.89-.39l-1-.33a9,9,0,0,1-1-.39,3.08,3.08,0,0,1-.9-.58,2.41,2.41,0,0,1-.63-.88,3.1,3.1,0,0,1,.7-3.49,3.6,3.6,0,0,1,1.13-.71,4.49,4.49,0,0,1,1.54-.26,5.14,5.14,0,0,1,1.78.32,4.64,4.64,0,0,1,1.41.9Z"/><polygon class="g" points="117.36 48.27 115.78 48.26 115.78 42.96 109.49 42.93 109.49 48.23 107.92 48.22 107.92 36.57 109.49 36.58 109.49 41.78 115.78 41.81 115.78 36.61 117.36 36.62 117.36 48.27"/></svg>