<svg xmlns="http://www.w3.org/2000/svg" viewBox="0 0 156 50"><defs><style>.a{fill:#171c8f;}.b{fill:#18a95d;}.c{fill:#fcbf00;fill-rule:evenodd;}.d{fill:#fff;}</style></defs><path class="a" d="M0,0V50H148.38L156,25,148.38,0Z"/><path class="b" d="M10,25.48A14.38,14.38,0,0,0,23.22,34,14.37,14.37,0,0,0,10,25.48Z"/><path class="b" d="M23.22,34A10.81,10.81,0,0,0,33,27.84,10.82,10.82,0,0,0,23.22,34Z"/><path class="c" d="M34,16.5A10.64,10.64,0,0,1,23.22,27,10.64,10.64,0,0,1,12.45,16.5,10.64,10.64,0,0,1,23.22,6,10.64,10.64,0,0,1,34,16.5Zm-5.39,0a5.39,5.39,0,1,1-5.39-5.25A5.32,5.32,0,0,1,28.61,16.5Z"/><path class="d" d="M92,16.48h4.5v17H92V26.88H84.15v6.64H79.66v-17h4.49v6.28H92ZM98.6,20.7h5.6V33.52h4.49V20.7h5.52V16.48H98.6V20.7ZM136,29.81v3.63a6.53,6.53,0,0,1-2.84.56c-2.33,0-3.51-1-4-2.6l-.08.11A6.87,6.87,0,0,1,123.43,34a8,8,0,0,1-6-2.59A9,9,0,0,1,115,25a8.91,8.91,0,0,1,2.47-6.37,8,8,0,0,1,6-2.63,6.9,6.9,0,0,1,5.49,2.28v-1.8h4.49V28.53c0,1,.48,1.57,1.44,1.57A2.31,2.31,0,0,0,136,29.81ZM129.11,25a4.51,4.51,0,0,0-1.4-3.44A4.81,4.81,0,0,0,119.46,25a4.9,4.9,0,0,0,8.25,3.48A4.66,4.66,0,0,0,129.11,25ZM42.64,16.48l-.13,6.4A20.69,20.69,0,0,1,42,28.22c-.35,1.41-1,1.8-2.08,1.8A2.85,2.85,0,0,1,39,29.9v3.62a3.76,3.76,0,0,0,1.69.28c3.16-.09,4.69-1.55,5.46-4.17a21.09,21.09,0,0,0,.73-5.47L47,20.7h5.58V33.52h4.49v-17Zm21.64,9.67c.49,2.91,2.84,3.86,5.23,3.86a6.77,6.77,0,0,0,4.27-1.51l2.77,2.73A9.14,9.14,0,0,1,69.44,34c-4.4,0-9.72-2.55-9.72-9s5.12-9,9.47-9c5.5,0,7.77,2.53,7.77,5.37C77,26,70.94,28.14,64.28,26.15Zm7.81-4.28c0-1.32-1.34-1.91-2.84-1.91C67,20,65,20.9,64.38,23.33,69,24.65,72.09,23.67,72.09,21.87Z"/></svg>