<svg xmlns="http://www.w3.org/2000/svg" xmlns:xlink="http://www.w3.org/1999/xlink" viewBox="0 0 491.16 117.39"><defs><style>.a{fill:none;}.b{fill:#e20613;}.c{clip-path:url(#a);}.d{fill:url(#b);}.e{clip-path:url(#c);}.f{fill:url(#d);}</style><clipPath id="a" transform="translate(7.99)"><path class="a" d="M36.69,54.51a101.37,101.37,0,0,0-4.76,13.77v.52c-.41,1.19-.63,1.6-.78,1.48A65,65,0,0,0,32.67,102a53.34,53.34,0,0,0,5.51-.26A65.47,65.47,0,0,0,92.43,17.86,65.29,65.29,0,0,0,36.62,54.51"/></clipPath><linearGradient id="b" x1="190.12" y1="56.25" x2="190.91" y2="56.25" gradientTransform="translate(3687.44 -12209.72) rotate(90) scale(64.46)" gradientUnits="userSpaceOnUse"><stop offset="0" stop-color="#54a142"/><stop offset="0.78" stop-color="#97bf35"/></linearGradient><clipPath id="c" transform="translate(7.99)"><path class="a" d="M7.71,63.25A42.4,42.4,0,0,0,32.56,102,65.1,65.1,0,0,1,31,70.28a24.74,24.74,0,0,1,.49-6.13c.41-2.8.85-5.29,1.34-7.67A48.35,48.35,0,0,0,14.48,40.3a42.46,42.46,0,0,0-6.77,23"/></clipPath><linearGradient id="d" x1="190.7" y1="55.02" x2="191.48" y2="55.02" gradientTransform="translate(3878.24 -13328.52) rotate(90) scale(70.12)" gradientUnits="userSpaceOnUse"><stop offset="0.01" stop-color="#519f43"/><stop offset="0.78" stop-color="#a1bf35"/></linearGradient></defs><path class="b" d="M40.67,103.32c-2.64.27-5.24.53-7.89.64C32.78,104-.41,89.48,0,58.38.3,34.23,11.54,27.2,11.54,27.2A49.16,49.16,0,0,1,26.42,37.43a51.56,51.56,0,0,1,8.34,12.8A57.84,57.84,0,0,1,53.92,19.65,71.82,71.82,0,0,1,103.14,0a80.9,80.9,0,0,1,5.58,29.13c.41,39.37-23.44,67.8-60.35,73.19-2.49.37-5,.71-7.44,1" transform="translate(7.99)"/><g class="c"><rect class="d" x="19.05" y="11.14" width="85.09" height="97.59" transform="translate(-4.4 16.2) rotate(-13.63)"/></g><g class="e"><rect class="f" x="0.02" y="38.06" width="40.56" height="66.12" transform="translate(-10.07 7.88) rotate(-15.31)"/></g><path class="b" d="M423.37,62l21-25.94c3.68-4.55,7.38-9.09,11-13.68a4.7,4.7,0,0,1,3-1.81,69.89,69.89,0,0,1,18-.61,28.29,28.29,0,0,1,5.33.83c1.16.31,1.57.86,1.34,2.14-2.52,13.72-5,27.45-7.44,41.18q-3.06,17.09-6.11,34.16c-.39,2.22-.53,2.49-2.71,2.87a66,66,0,0,1-22.57,0c-.35-.06-.69-.21-1-.28-1.11-.25-1.39-.9-1.19-2,.95-5,1.84-10.1,2.75-15.14q1.86-10.38,3.72-20.74c.2-1.09.48-2.18.75-3.35-.7.3-1,.89-1.36,1.36Q432.36,80.14,416.83,99.3a4.75,4.75,0,0,1-3,1.86,67.13,67.13,0,0,1-22.58,0c-.35-.06-.69-.19-1-.28-1-.26-1.42-.78-1.21-2,2.36-12.89,4.65-25.78,7-38.67q3.3-18.47,6.62-36.94c.37-2.06.5-2.29,2.58-2.67a68,68,0,0,1,22.32-.14c.23,0,.44.1.66.15,2.06.52,2.15.65,1.77,2.77q-3.26,18.13-6.52,36.27c-.1.58-.22,1.15-.34,1.72C423,61.7,422.76,62.08,423.37,62Z" transform="translate(7.99)"/><path class="b" d="M257.44,64.17q-1.77,9.77-3.53,19.52c-.93,5.14-1.86,10.27-2.74,15.42a2.05,2.05,0,0,1-1.69,1.82,30.28,30.28,0,0,1-6.13.93,68.8,68.8,0,0,1-17-.64c-.39-.08-.78-.2-1.18-.29-1.18-.27-1.64-.8-1.39-2.19q6.88-37.92,13.61-75.86a2.48,2.48,0,0,1,2.29-2.21,71,71,0,0,1,22.58-.16A16.91,16.91,0,0,1,264,21c.83.26,1.07.77.91,1.66-1.67,9-3.29,18.05-4.93,27.09,0,.25-.05.51-.07.82.65-.14.9-.67,1.25-1q12.8-13.66,25.55-27.35a6.35,6.35,0,0,1,4-1.77,73.08,73.08,0,0,1,13.47-.68,60.83,60.83,0,0,1,8.2.65c.58.1,1.16.2,1.72.35,2.12.55,2.24,1,.76,2.56q-14.44,15.51-28.93,31a1.66,1.66,0,0,0-.35,2.2q9.68,21,19.26,42.1c.72,1.57.57,1.89-1.12,2.32a37.13,37.13,0,0,1-7.49,1,104.89,104.89,0,0,1-20.35-.61,4.61,4.61,0,0,1-4.12-3.19c-4.3-10.88-8.77-21.69-13.19-32.52-.18-.46-.39-.91-.58-1.37A.29.29,0,0,0,257.44,64.17Z" transform="translate(7.99)"/><path class="b" d="M361,19.75c8.78,0,17.57,0,26.35,0,1.31,0,1.9.42,2,1.72a34.4,34.4,0,0,1-2.89,16,2.12,2.12,0,0,1-2.25,1.32c-10.76,0-21.53,0-32.29-.05-1.14,0-1.56.32-1.72,1.43-.43,2.85-.91,5.69-1.52,8.51-.27,1.24,0,1.52,1.23,1.52,8.33,0,16.66,0,25,0,1.88,0,2.14.16,2.25,2a35.15,35.15,0,0,1-2.74,15.42,2.52,2.52,0,0,1-2.72,1.69c-8.42-.06-16.84,0-25.26-.06-1.14,0-1.56.33-1.73,1.43-.52,3.29-1.07,6.58-1.77,9.83-.29,1.39.16,1.54,1.37,1.54,10.35,0,20.71,0,31.07,0,2,0,2.24.12,2.35,2.19a36.6,36.6,0,0,1-2.9,16.2,2.31,2.31,0,0,1-2.31,1.69c-16.88-.06-33.77-.06-50.66-.11a34.54,34.54,0,0,1-8.15-1c-1.27-.31-1.62-.95-1.39-2.24q6.8-37.65,13.51-75.33c.38-2.1.52-2.27,2.69-2.74a53.44,53.44,0,0,1,11.29-.89C346.9,19.74,354,19.75,361,19.75Z" transform="translate(7.99)"/><path class="b" d="M221,27.63h-.27c-3.81,0-4.1-.36-3.33-4,1.45-6.82,2.94-13.64,4.34-20.47A2.67,2.67,0,0,1,224,.8a30.12,30.12,0,0,1,13.78,0,6,6,0,0,1,.64.21c1.45.57,1.64,1.1.84,2.42q-4.08,6.77-8.19,13.52c-1.54,2.54-3.25,5-4.58,7.64A5,5,0,0,1,221,27.63Z" transform="translate(7.99)"/><path class="b" d="M450.73,0A24.8,24.8,0,0,1,457.8.9c1.9.61,2.09,1.11,1.09,2.77-4.48,7.38-9,14.75-13.41,22.15a3.12,3.12,0,0,1-2.34,1.6,13.81,13.81,0,0,1-5.36-.13c-.87-.22-1.26-.62-1-1.63Q439.22,14.34,441.58,3A2.48,2.48,0,0,1,443.53.88,27.34,27.34,0,0,1,450.73,0Z" transform="translate(7.99)"/><path class="b" d="M163.64,103.53a51.23,51.23,0,0,1-14.44-1.85c-13-3.91-20.67-12.61-22.21-26.14-1.56-13.76,1.5-26.54,9.81-37.76,8.51-11.51,20.09-18,34.2-20.14a53.88,53.88,0,0,1,19.2.48C205.52,21.37,215,32.18,216,47.78c2.07,31.49-20.74,52.08-45.92,55.32C167.75,103.4,165.41,103.48,163.64,103.53Zm-9.16-32.38c1.32,11.84,9.9,13.64,17.45,11.55a18.64,18.64,0,0,0,10.58-8.16,36.47,36.47,0,0,0,5.62-26.17c-.77-5.28-3.45-9.35-9-10.8a16,16,0,0,0-7.75,0c-5.5,1.32-9.21,4.9-11.94,9.63-3.54,6.15-4.95,12.88-5.15,20.43C154.32,68.46,154.33,69.81,154.48,71.15Z" transform="translate(7.99)"/></svg>